<svg xmlns="http://www.w3.org/2000/svg" width="140" height="140" viewBox="0 0 140 140" role="img" aria-label="ESSET Lab logo">
  <defs>
    <linearGradient id="leafGradient" x1="0%" y1="100%" x2="100%" y2="0%">
      <stop offset="0%" stop-color="#F3921D" stop-opacity="1"/>
      <stop offset="100%" stop-color="#FDB833" stop-opacity="1"/>
    </linearGradient>
  </defs>
  <g id="EssetIcon" transform="translate(17.50,0.00) scale(1)">
    <!-- base facets -->
    <path d="M25 50 L25 80 L65 100 L65 70 Z" fill="#105253"/>
    <path d="M25 90 L25 120 L65 140 L65 110 Z" fill="#105253"/>
    <path d="M25 50 L65 30 L105 50 L65 70 Z" fill="#1A7067"/>
    <path d="M25 90 L65 70 L105 90 L65 110 Z" fill="#1A7067"/>
    <!-- sprout -->
    <path d="M60 35 L60 10" stroke="#FDB833" stroke-width="8" stroke-linecap="round"/>
    <path d="M60 35 Q40 20 30 15 Q40 50 60 35" fill="url(#leafGradient)"/>
    <path d="M60 35 Q80 10 90 5 Q80 40 60 35" fill="url(#leafGradient)"/>
  </g>
</svg>
