<svg xmlns="http://www.w3.org/2000/svg" width="400" height="150" viewBox="0 0 400 150" role="img" aria-label="ESSET Lab logo">
  <defs>
    <linearGradient id="leafGradient" x1="0%" y1="100%" x2="100%" y2="0%">
      <stop offset="0%" stop-color="#F3921D" stop-opacity="1"/>
      <stop offset="100%" stop-color="#FDB833" stop-opacity="1"/>
    </linearGradient>
  </defs>
  <g id="EssetIcon" transform="translate(20, 20) scale(0.8)">
    <!-- base facets -->
    <path d="M25 50 L25 80 L65 100 L65 70 Z" fill="#105253"/>
    <path d="M25 90 L25 120 L65 140 L65 110 Z" fill="#105253"/>
    <path d="M25 50 L65 30 L105 50 L65 70 Z" fill="#1A7067"/>
    <path d="M25 90 L65 70 L105 90 L65 110 Z" fill="#1A7067"/>
    <!-- sprout -->
    <path d="M60 35 L60 10" stroke="#FDB833" stroke-width="8" stroke-linecap="round"/>
    <path d="M60 35 Q40 20 30 15 Q40 50 60 35" fill="url(#leafGradient)"/>
    <path d="M60 35 Q80 10 90 5 Q80 40 60 35" fill="url(#leafGradient)"/>
  </g>
  <g id="BrandName" transform="translate(130, 80)">
  <g id="Word_ESSET" fill="#2D3338" transform="scale(0.029297, -0.029297)">
    <path d="M188 1493H1227V1202H573V924H1188V633H573V291H1249V0H188Z" transform="translate(0.000,0)" />
    <path d="M1227 1446V1130Q1104 1185 987.0 1213.0Q870 1241 766 1241Q628 1241 562.0 1203.0Q496 1165 496 1085Q496 1025 540.5 991.5Q585 958 702 934L866 901Q1115 851 1220.0 749.0Q1325 647 1325 459Q1325 212 1178.5 91.5Q1032 -29 731 -29Q589 -29 446.0 -2.0Q303 25 160 78V403Q303 327 436.5 288.5Q570 250 694 250Q820 250 887.0 292.0Q954 334 954 412Q954 482 908.5 520.0Q863 558 727 588L578 621Q354 669 250.5 774.0Q147 879 147 1057Q147 1280 291.0 1400.0Q435 1520 705 1520Q828 1520 958.0 1501.5Q1088 1483 1227 1446Z" transform="translate(1330.733,0)" />
    <path d="M1227 1446V1130Q1104 1185 987.0 1213.0Q870 1241 766 1241Q628 1241 562.0 1203.0Q496 1165 496 1085Q496 1025 540.5 991.5Q585 958 702 934L866 901Q1115 851 1220.0 749.0Q1325 647 1325 459Q1325 212 1178.5 91.5Q1032 -29 731 -29Q589 -29 446.0 -2.0Q303 25 160 78V403Q303 327 436.5 288.5Q570 250 694 250Q820 250 887.0 292.0Q954 334 954 412Q954 482 908.5 520.0Q863 558 727 588L578 621Q354 669 250.5 774.0Q147 879 147 1057Q147 1280 291.0 1400.0Q435 1520 705 1520Q828 1520 958.0 1501.5Q1088 1483 1227 1446Z" transform="translate(2737.467,0)" />
    <path d="M188 1493H1227V1202H573V924H1188V633H573V291H1249V0H188Z" transform="translate(4144.200,0)" />
    <path d="M10 1493H1386V1202H891V0H506V1202H10Z" transform="translate(5474.933,0)" />
  </g>
  <g transform="translate(0, 50)">
    <g id="Word_Lab" fill="#2D3338" transform="scale(0.024414, -0.024414)">
    <path d="M188 1493H573V291H1249V0H188Z" transform="translate(0.000,0)" />
    <path d="M674 504Q562 504 505.5 466.0Q449 428 449 354Q449 286 494.5 247.5Q540 209 621 209Q722 209 791.0 281.5Q860 354 860 463V504ZM1221 639V0H860V166Q788 64 698.0 17.5Q608 -29 479 -29Q305 -29 196.5 72.5Q88 174 88 336Q88 533 223.5 625.0Q359 717 649 717H860V745Q860 830 793.0 869.5Q726 909 584 909Q469 909 370.0 886.0Q271 863 186 817V1090Q301 1118 417.0 1132.5Q533 1147 649 1147Q952 1147 1086.5 1027.5Q1221 908 1221 639Z" transform="translate(1264.040,0)" />
    <path d="M768 231Q883 231 943.5 315.0Q1004 399 1004 559Q1004 719 943.5 803.0Q883 887 768 887Q653 887 591.5 802.5Q530 718 530 559Q530 400 591.5 315.5Q653 231 768 231ZM530 956Q604 1054 694.0 1100.5Q784 1147 901 1147Q1108 1147 1241.0 982.5Q1374 818 1374 559Q1374 300 1241.0 135.5Q1108 -29 901 -29Q784 -29 694.0 17.5Q604 64 530 162V0H172V1556H530Z" transform="translate(2605.080,0)" />
  </g>
  </g>
</g>
  <g id="Tagline" transform="translate(20, 140)">
  <g id="Tagline_Text" fill="#2D3338" transform="scale(0.008789, -0.008789)">
    <path d="M201 1493H1145V1323H403V881H1114V711H403V170H1163V0H201Z" transform="translate(0.000,0)" />
    <path d="M61 1120H256L606 180L956 1120H1151L731 0H481Z" transform="translate(1294.000,0)" />
    <path d="M193 1120H377V0H193ZM193 1556H377V1323H193Z" transform="translate(2506.000,0)" />
    <path d="M930 950V1556H1114V0H930V168Q872 68 783.5 19.5Q695 -29 571 -29Q368 -29 240.5 133.0Q113 295 113 559Q113 823 240.5 985.0Q368 1147 571 1147Q695 1147 783.5 1098.5Q872 1050 930 950ZM303 559Q303 356 386.5 240.5Q470 125 616 125Q762 125 846.0 240.5Q930 356 930 559Q930 762 846.0 877.5Q762 993 616 993Q470 993 386.5 877.5Q303 762 303 559Z" transform="translate(3075.000,0)" />
    <path d="M1151 606V516H305Q317 326 419.5 226.5Q522 127 705 127Q811 127 910.5 153.0Q1010 179 1108 231V57Q1009 15 905.0 -7.0Q801 -29 694 -29Q426 -29 269.5 127.0Q113 283 113 549Q113 824 261.5 985.5Q410 1147 662 1147Q888 1147 1019.5 1001.5Q1151 856 1151 606ZM967 660Q965 811 882.5 901.0Q800 991 664 991Q510 991 417.5 904.0Q325 817 311 659Z" transform="translate(4375.000,0)" />
    <path d="M1124 676V0H940V670Q940 829 878.0 908.0Q816 987 692 987Q543 987 457.0 892.0Q371 797 371 633V0H186V1120H371V946Q437 1047 526.5 1097.0Q616 1147 733 1147Q926 1147 1025.0 1027.5Q1124 908 1124 676Z" transform="translate(5635.000,0)" />
    <path d="M999 1077V905Q921 948 842.5 969.5Q764 991 684 991Q505 991 406.0 877.5Q307 764 307 559Q307 354 406.0 240.5Q505 127 684 127Q764 127 842.5 148.5Q921 170 999 213V43Q922 7 839.5 -11.0Q757 -29 664 -29Q411 -29 262.0 130.0Q113 289 113 559Q113 833 263.5 990.0Q414 1147 676 1147Q761 1147 842.0 1129.5Q923 1112 999 1077Z" transform="translate(6933.000,0)" />
    <path d="M1151 606V516H305Q317 326 419.5 226.5Q522 127 705 127Q811 127 910.5 153.0Q1010 179 1108 231V57Q1009 15 905.0 -7.0Q801 -29 694 -29Q426 -29 269.5 127.0Q113 283 113 549Q113 824 261.5 985.5Q410 1147 662 1147Q888 1147 1019.5 1001.5Q1151 856 1151 606ZM967 660Q965 811 882.5 901.0Q800 991 664 991Q510 991 417.5 904.0Q325 817 311 659Z" transform="translate(8059.000,0)" />
    <path d="M100 643H639V479H100Z" transform="translate(9319.000,0)" />
    <path d="M403 1327V766H657Q798 766 875.0 839.0Q952 912 952 1047Q952 1181 875.0 1254.0Q798 1327 657 1327ZM201 1493H657Q908 1493 1036.5 1379.5Q1165 1266 1165 1047Q1165 826 1036.5 713.0Q908 600 657 600H403V0H201Z" transform="translate(10058.000,0)" />
    <path d="M627 991Q479 991 393.0 875.5Q307 760 307 559Q307 358 392.5 242.5Q478 127 627 127Q774 127 860.0 243.0Q946 359 946 559Q946 758 860.0 874.5Q774 991 627 991ZM627 1147Q867 1147 1004.0 991.0Q1141 835 1141 559Q1141 284 1004.0 127.5Q867 -29 627 -29Q386 -29 249.5 127.5Q113 284 113 559Q113 835 249.5 991.0Q386 1147 627 1147Z" transform="translate(11293.000,0)" />
    <path d="M86 1120H270L500 246L729 1120H946L1176 246L1405 1120H1589L1296 0H1079L838 918L596 0H379Z" transform="translate(12546.000,0)" />
    <path d="M1151 606V516H305Q317 326 419.5 226.5Q522 127 705 127Q811 127 910.5 153.0Q1010 179 1108 231V57Q1009 15 905.0 -7.0Q801 -29 694 -29Q426 -29 269.5 127.0Q113 283 113 549Q113 824 261.5 985.5Q410 1147 662 1147Q888 1147 1019.5 1001.5Q1151 856 1151 606ZM967 660Q965 811 882.5 901.0Q800 991 664 991Q510 991 417.5 904.0Q325 817 311 659Z" transform="translate(14221.000,0)" />
    <path d="M842 948Q811 966 774.5 974.5Q738 983 694 983Q538 983 454.5 881.5Q371 780 371 590V0H186V1120H371V946Q429 1048 522.0 1097.5Q615 1147 748 1147Q767 1147 790.0 1144.5Q813 1142 841 1137Z" transform="translate(15481.000,0)" />
    <path d="M1151 606V516H305Q317 326 419.5 226.5Q522 127 705 127Q811 127 910.5 153.0Q1010 179 1108 231V57Q1009 15 905.0 -7.0Q801 -29 694 -29Q426 -29 269.5 127.0Q113 283 113 549Q113 824 261.5 985.5Q410 1147 662 1147Q888 1147 1019.5 1001.5Q1151 856 1151 606ZM967 660Q965 811 882.5 901.0Q800 991 664 991Q510 991 417.5 904.0Q325 817 311 659Z" transform="translate(16323.000,0)" />
    <path d="M930 950V1556H1114V0H930V168Q872 68 783.5 19.5Q695 -29 571 -29Q368 -29 240.5 133.0Q113 295 113 559Q113 823 240.5 985.0Q368 1147 571 1147Q695 1147 783.5 1098.5Q872 1050 930 950ZM303 559Q303 356 386.5 240.5Q470 125 616 125Q762 125 846.0 240.5Q930 356 930 559Q930 762 846.0 877.5Q762 993 616 993Q470 993 386.5 877.5Q303 762 303 559Z" transform="translate(17583.000,0)" />
    <path d="M1319 1378V1165Q1217 1260 1101.5 1307.0Q986 1354 856 1354Q600 1354 464.0 1197.5Q328 1041 328 745Q328 450 464.0 293.5Q600 137 856 137Q986 137 1101.5 184.0Q1217 231 1319 326V115Q1213 43 1094.5 7.0Q976 -29 844 -29Q505 -29 310.0 178.5Q115 386 115 745Q115 1105 310.0 1312.5Q505 1520 844 1520Q978 1520 1096.5 1484.5Q1215 1449 1319 1378Z" transform="translate(19534.000,0)" />
    <path d="M1124 676V0H940V670Q940 829 878.0 908.0Q816 987 692 987Q543 987 457.0 892.0Q371 797 371 633V0H186V1556H371V946Q437 1047 526.5 1097.0Q616 1147 733 1147Q926 1147 1025.0 1027.5Q1124 908 1124 676Z" transform="translate(20964.000,0)" />
    <path d="M702 563Q479 563 393.0 512.0Q307 461 307 338Q307 240 371.5 182.5Q436 125 547 125Q700 125 792.5 233.5Q885 342 885 522V563ZM1069 639V0H885V170Q822 68 728.0 19.5Q634 -29 498 -29Q326 -29 224.5 67.5Q123 164 123 326Q123 515 249.5 611.0Q376 707 627 707H885V725Q885 852 801.5 921.5Q718 991 567 991Q471 991 380.0 968.0Q289 945 205 899V1069Q306 1108 401.0 1127.5Q496 1147 586 1147Q829 1147 949.0 1021.0Q1069 895 1069 639Z" transform="translate(22262.000,0)" />
    <path d="M1124 676V0H940V670Q940 829 878.0 908.0Q816 987 692 987Q543 987 457.0 892.0Q371 797 371 633V0H186V1120H371V946Q437 1047 526.5 1097.0Q616 1147 733 1147Q926 1147 1025.0 1027.5Q1124 908 1124 676Z" transform="translate(23517.000,0)" />
    <path d="M930 573Q930 773 847.5 883.0Q765 993 616 993Q468 993 385.5 883.0Q303 773 303 573Q303 374 385.5 264.0Q468 154 616 154Q765 154 847.5 264.0Q930 374 930 573ZM1114 139Q1114 -147 987.0 -286.5Q860 -426 598 -426Q501 -426 415.0 -411.5Q329 -397 248 -367V-188Q329 -232 408.0 -253.0Q487 -274 569 -274Q750 -274 840.0 -179.5Q930 -85 930 106V197Q873 98 784.0 49.0Q695 0 571 0Q365 0 239.0 157.0Q113 314 113 573Q113 833 239.0 990.0Q365 1147 571 1147Q695 1147 784.0 1098.0Q873 1049 930 950V1120H1114Z" transform="translate(24815.000,0)" />
    <path d="M1151 606V516H305Q317 326 419.5 226.5Q522 127 705 127Q811 127 910.5 153.0Q1010 179 1108 231V57Q1009 15 905.0 -7.0Q801 -29 694 -29Q426 -29 269.5 127.0Q113 283 113 549Q113 824 261.5 985.5Q410 1147 662 1147Q888 1147 1019.5 1001.5Q1151 856 1151 606ZM967 660Q965 811 882.5 901.0Q800 991 664 991Q510 991 417.5 904.0Q325 817 311 659Z" transform="translate(26115.000,0)" />
  </g>
</g>
</svg>
