<?xml version="1.0" encoding="UTF-8"?>
<svg version="1.1" xmlns="http://www.w3.org/2000/svg" width="1024" height="1024">
<path d="M0 0 C337.92 0 675.84 0 1024 0 C1024 337.92 1024 675.84 1024 1024 C686.08 1024 348.16 1024 0 1024 C0 686.08 0 348.16 0 0 Z " fill="#FDFDFD" transform="translate(0,0)"/>
<path d="M0 0 C5.72430004 2.50288433 10.22912849 7.98112515 12.94921875 13.4921875 C14.95127236 19.91829129 14.79267176 26.89313522 11.75 32.9375 C8.15408569 38.56633178 2.32386395 43.45911855 -4.25 45.0625 C-11.26448042 45.96035349 -17.01339218 44.29280348 -23.25 41.0625 C-23.91 40.4025 -24.57 39.7425 -25.25 39.0625 C-28.39046253 39.43227726 -30.53059276 40.72994191 -33.09375 42.51171875 C-33.83560547 43.02323486 -34.57746094 43.53475098 -35.34179688 44.06176758 C-36.13650391 44.61888428 -36.93121094 45.17600098 -37.75 45.75 C-38.58080078 46.32580811 -39.41160156 46.90161621 -40.26757812 47.49487305 C-42.9326495 49.34470208 -45.59148172 51.20326851 -48.25 53.0625 C-50.02063494 54.29455601 -51.79146651 55.52632947 -53.5625 56.7578125 C-61.57090781 62.33736731 -69.55707327 67.92808521 -77.3515625 73.8046875 C-79.25 75.0625 -79.25 75.0625 -81.25 75.0625 C-80.26 78.5275 -80.26 78.5275 -79.25 82.0625 C-78.59 82.0625 -77.93 82.0625 -77.25 82.0625 C-76.96125 83.196875 -76.6725 84.33125 -76.375 85.5 C-76.00375 86.675625 -75.6325 87.85125 -75.25 89.0625 C-74.59 89.3925 -73.93 89.7225 -73.25 90.0625 C-73.58 91.7125 -73.91 93.3625 -74.25 95.0625 C-73.59 95.0625 -72.93 95.0625 -72.25 95.0625 C-71.92 96.0525 -71.59 97.0425 -71.25 98.0625 C-68.25476438 99.70504857 -65.18023332 100.29941861 -61.859375 100.92578125 C-55.66750697 102.14446795 -49.56203942 103.67132598 -43.4375 105.1875 C-29.80739968 108.53139166 -16.11121341 111.51871122 -2.37573242 114.39697266 C-1.6059758 114.55998367 -0.83621918 114.72299469 -0.0431366 114.89094543 C1.3981026 115.19612688 2.8401079 115.49772234 4.28300476 115.79496765 C7.94433757 116.57306455 11.32318001 117.55171147 14.75 119.0625 C14.75 121.0425 14.75 123.0225 14.75 125.0625 C7.45094179 125.59384906 0.83411239 123.83801793 -6.1857605 122.04333496 C-9.85073911 121.10701389 -13.52354161 120.2022145 -17.1953125 119.29296875 C-17.94697189 119.10598419 -18.69863129 118.91899963 -19.47306824 118.72634888 C-27.18712587 116.8139178 -34.93187487 115.04739643 -42.6875 113.3125 C-43.9677002 113.02552246 -45.24790039 112.73854492 -46.56689453 112.44287109 C-50.12736631 111.64685896 -53.68854647 110.85410647 -57.25 110.0625 C-59.2291873 109.62118627 -61.20835572 109.17978789 -63.1875 108.73828125 C-67.20749273 107.84252405 -71.22832844 106.9506881 -75.25 106.0625 C-75.34925781 107.28453125 -75.44851563 108.5065625 -75.55078125 109.765625 C-76.34738788 116.07730757 -80.14742882 120.45433393 -84.94140625 124.484375 C-87.30526929 126.11952838 -89.5199801 127.15249337 -92.25 128.0625 C-91.69904692 132.80315509 -90.74990684 136.90506579 -89.02734375 141.3515625 C-88.57512451 142.53016846 -88.12290527 143.70877441 -87.65698242 144.9230957 C-87.16726106 146.17793855 -86.67743126 147.43273909 -86.1875 148.6875 C-85.68587928 149.98824582 -85.18499124 151.28927443 -84.68481445 152.59057617 C-83.6820951 155.19669967 -82.67574854 157.80137118 -81.66601562 160.40478516 C-79.73705177 165.38749834 -77.83602936 170.38063227 -75.9375 175.375 C-75.61958496 176.20829834 -75.30166992 177.04159668 -74.97412109 177.90014648 C-72.6425943 184.01264272 -70.33956682 190.13552768 -68.06323242 196.26879883 C-67.20125277 198.58227472 -66.35503641 200.85242717 -65.25 203.0625 C-61.23514961 201.34184983 -58.00552575 198.64475638 -54.625 195.9375 C-54.00181885 195.4432251 -53.3786377 194.9489502 -52.73657227 194.43969727 C-48.40553555 191.00062331 -44.0967967 187.53364645 -39.78515625 184.0703125 C-36.92413238 181.80441686 -34.02625617 179.58886275 -31.125 177.375 C-26.11399712 173.54621764 -21.19696315 169.61375338 -16.3125 165.625 C-9.59323775 160.13844572 -2.81705934 154.73512578 4.03125 149.41064453 C5.8352205 147.99565517 7.62129515 146.55997624 9.40625 145.12109375 C10.58321012 144.18474094 11.76028912 143.24853753 12.9375 142.3125 C13.47850342 141.86946533 14.01950684 141.42643066 14.5769043 140.9699707 C16.10546875 139.765625 16.10546875 139.765625 18.75 138.0625 C19.74 138.3925 20.73 138.7225 21.75 139.0625 C22.9375 141.625 22.9375 141.625 23.75 144.0625 C15.93291117 150.37761543 8.06997392 156.61495454 0.0625 162.6875 C-5.86016679 167.18397056 -11.6189337 171.8072919 -17.30078125 176.60546875 C-22.26598344 180.74204117 -27.37156939 184.6982402 -32.46777344 188.67138672 C-34.81847673 190.50622334 -37.16311827 192.34870186 -39.50708008 194.19213867 C-40.66255902 195.10062772 -41.81863994 196.00835169 -42.9753418 196.9152832 C-46.0396508 199.31860352 -49.09410952 201.73331114 -52.13671875 204.1640625 C-52.77287109 204.67001953 -53.40902344 205.17597656 -54.06445312 205.69726562 C-55.28593534 206.66910184 -56.50482011 207.64421444 -57.72070312 208.62304688 C-60.22855215 210.61344991 -62.18515031 212.04088344 -65.25 213.0625 C-65.25 213.7225 -65.25 214.3825 -65.25 215.0625 C-36.35212361 215.09680015 -9.36780681 214.35869437 12.75 193.0625 C21.57442954 183.10820022 27.6551122 171.26835083 32.75 159.0625 C35.06 159.0625 37.37 159.0625 39.75 159.0625 C38.43470178 166.35642648 35.99811293 172.42231346 32.75 179.0625 C32.29496094 180.03445313 31.83992188 181.00640625 31.37109375 182.0078125 C17.16650209 211.65554331 -7.28867902 234.24557912 -36.25 249.0625 C-36.86359375 249.38202637 -37.4771875 249.70155273 -38.109375 250.03076172 C-67.97331306 265.2897664 -108.02221528 267.95619932 -140.25 259.0625 C-140.9296582 258.88058105 -141.60931641 258.69866211 -142.30957031 258.51123047 C-151.87662897 255.87049573 -160.61954874 251.74610884 -169.33300781 247.08447266 C-171.13585786 246.12335061 -172.95422317 245.19149459 -174.7734375 244.26171875 C-191.3575683 235.40040401 -205.60639963 222.29122381 -217.3125 207.6875 C-218.04799072 206.77581055 -218.04799072 206.77581055 -218.79833984 205.84570312 C-222.25 201.42500392 -222.25 201.42500392 -222.25 198.0625 C-220.82855831 197.14871606 -219.40475202 196.23838392 -217.96875 195.34765625 C-212.32042966 191.12425309 -209.14797647 184.30429548 -206.25 178.0625 C-196.13672377 179.35081544 -186.43324924 182.33969589 -176.73046875 185.390625 C-176.04414368 185.60605957 -175.3578186 185.82149414 -174.6506958 186.04345703 C-170.54214895 187.33478495 -166.43726578 188.63750038 -162.33354187 189.94406128 C-148.4526758 194.36240011 -134.61540844 198.69793015 -120.4296875 202.05078125 C-116.65954419 202.94254217 -112.9600224 204.00685237 -109.25 205.125 C-103.50752161 206.79591117 -97.72984058 208.10932598 -91.875 209.3125 C-91.04226563 209.48789307 -90.20953125 209.66328613 -89.3515625 209.84399414 C-83.2595991 211.05396644 -77.26862526 212.06870842 -71.25 210.0625 C-71.61798706 209.11673096 -71.61798706 209.11673096 -71.9934082 208.15185547 C-77.61728087 193.67340239 -83.09828647 179.15320864 -88.40551758 164.55615234 C-90.5338926 158.70881028 -92.68075326 152.86935515 -94.88671875 147.05078125 C-95.26916748 146.04184814 -95.65161621 145.03291504 -96.0456543 143.9934082 C-97.23469907 140.97856827 -97.23469907 140.97856827 -98.89770508 137.87573242 C-100.25 135.0625 -100.25 135.0625 -100.25 132.0625 C-101.24 132.3925 -102.23 132.7225 -103.25 133.0625 C-105.10364289 133.10656878 -106.95875399 133.10199392 -108.8125 133.0625 C-112.68123651 132.87883753 -112.68123651 132.87883753 -116.25 134.0625 C-116.25 133.4025 -116.25 132.7425 -116.25 132.0625 C-116.97316406 131.95164062 -117.69632813 131.84078125 -118.44140625 131.7265625 C-126.01529394 129.93579629 -133.15223366 124.68545815 -137.25 118.0625 C-137.60665952 116.73521598 -137.942992 115.40213987 -138.25 114.0625 C-149.48843426 120.13568344 -160.59881433 126.38361489 -171.57446289 132.92016602 C-180.23074887 138.07095719 -188.95192795 143.1054622 -197.68408203 148.12597656 C-198.72806152 148.72635742 -199.77204102 149.32673828 -200.84765625 149.9453125 C-202.23223022 150.74026123 -202.23223022 150.74026123 -203.64477539 151.55126953 C-205.43520114 152.58985405 -207.20724793 153.66057534 -208.96264648 154.75732422 C-211.25 156.0625 -211.25 156.0625 -213.25 156.0625 C-212.755 157.42375 -212.755 157.42375 -212.25 158.8125 C-209.68734133 168.17750997 -210.76508251 175.97784103 -215.48046875 184.42578125 C-219.09621074 189.81347626 -223.60068823 193.56640338 -229.81640625 195.58984375 C-237.47353885 197.0770236 -245.76700903 197.44554241 -252.58203125 193.24609375 C-253.13246094 192.85550781 -253.68289063 192.46492187 -254.25 192.0625 C-255.301875 191.36125 -256.35375 190.66 -257.4375 189.9375 C-262.30201009 185.68437643 -265.69913942 178.12771166 -266.55859375 171.78515625 C-266.94960799 163.71604416 -264.87271403 157.68524541 -260.25 151.0625 C-253.97710724 144.74558694 -247.99920191 141.78243413 -239.0625 141.625 C-231.35369768 141.71542583 -225.17408196 143.35545797 -219.484375 148.73046875 C-219.07703125 149.17003906 -218.6696875 149.60960937 -218.25 150.0625 C-213.518169 148.35118563 -209.25002871 145.95358222 -204.875 143.5 C-203.67254639 142.82855957 -203.67254639 142.82855957 -202.44580078 142.14355469 C-197.02653317 139.10119656 -191.67376589 135.9646358 -186.36010742 132.7421875 C-171.80968693 123.92998785 -157.04797367 115.45149211 -142.25 107.0625 C-142.26160156 106.17046875 -142.27320313 105.2784375 -142.28515625 104.359375 C-142.29417969 103.18890625 -142.30320312 102.0184375 -142.3125 100.8125 C-142.32410156 99.65234375 -142.33570313 98.4921875 -142.34765625 97.296875 C-142.26782092 94.65272872 -142.03643778 92.56423909 -141.25 90.0625 C-142.00410156 89.835625 -142.75820313 89.60875 -143.53515625 89.375 C-148.71130134 87.54620426 -153.67476968 85.29537367 -158.6875 83.0625 C-160.91785335 82.07656183 -163.14832502 81.09089126 -165.37890625 80.10546875 C-168.79205227 78.59449358 -172.20476924 77.08256684 -175.61669922 75.56884766 C-178.78389272 74.16575599 -181.95411785 72.76973136 -185.125 71.375 C-186.09880615 70.94123047 -187.0726123 70.50746094 -188.07592773 70.06054688 C-188.97641846 69.66544922 -189.87690918 69.27035156 -190.8046875 68.86328125 C-191.59343262 68.51434814 -192.38217773 68.16541504 -193.19482422 67.8059082 C-195.35593496 66.8924225 -195.35593496 66.8924225 -198.25 67.0625 C-199.0234375 68.1453125 -199.0234375 68.1453125 -199.8125 69.25 C-204.23983087 74.3584587 -209.24846383 76.63462144 -215.921875 77.5859375 C-223.15088412 77.89077523 -228.63154472 77.51420942 -234.3828125 72.90234375 C-240.6971655 66.68046035 -243.75765225 61.15009342 -244.625 52.1875 C-244.44301841 45.49317727 -240.99442162 38.67869401 -236.25 34.0625 C-229.06835069 29.38978178 -222.85575315 27.12124575 -214.25 28.0625 C-207.13258143 29.86355409 -201.65974026 33.14385658 -197.25 39.0625 C-194.59888035 43.61933388 -193.8100792 47.18882088 -193.5625 52.4375 C-193.49675781 53.68273437 -193.43101562 54.92796875 -193.36328125 56.2109375 C-193.30720703 57.62246094 -193.30720703 57.62246094 -193.25 59.0625 C-187.73772423 61.55547364 -182.22417355 64.04559869 -176.70947266 66.53320312 C-174.83738309 67.37814277 -172.96563145 68.22383159 -171.09423828 69.0703125 C-168.38925347 70.29368696 -165.6830256 71.51427504 -162.9765625 72.734375 C-162.15322418 73.10745789 -161.32988586 73.48054077 -160.4815979 73.8649292 C-149.67557743 78.89854474 -149.67557743 78.89854474 -138.25 82.0625 C-137.88841797 80.95261719 -137.88841797 80.95261719 -137.51953125 79.8203125 C-136.0776066 76.68800849 -134.54311643 75.17088551 -131.9375 72.9375 C-131.17824219 72.27492188 -130.41898438 71.61234375 -129.63671875 70.9296875 C-121.89580157 64.87378176 -114.02240592 63.53999481 -104.3203125 63.6640625 C-99.96905559 64.22872943 -96.48875541 65.85297151 -92.625 67.87109375 C-90.36284647 69.00589116 -88.75061723 69.74685163 -86.25 70.0625 C-84.13436291 69.10808993 -84.13436291 69.10808993 -82.08203125 67.51953125 C-81.28007324 66.94638184 -80.47811523 66.37323242 -79.65185547 65.78271484 C-78.79736816 65.15316895 -77.94288086 64.52362305 -77.0625 63.875 C-76.17191895 63.2351416 -75.28133789 62.5952832 -74.36376953 61.93603516 C-72.53044272 60.61840291 -70.7006958 59.2957758 -68.87451172 57.96826172 C-65.1460692 55.2608922 -61.38863488 52.59562855 -57.625 49.9375 C-56.95130371 49.45998291 -56.27760742 48.98246582 -55.58349609 48.49047852 C-47.58653335 42.84550779 -39.42274512 37.44845882 -31.25 32.0625 C-31.40726563 31.35738281 -31.56453125 30.65226562 -31.7265625 29.92578125 C-32.91170877 23.44285424 -33.63517137 16.55419325 -30.1875 10.6875 C-22.55188303 0.27529505 -12.72835177 -3.7376906 0 0 Z " fill="#12294F" transform="translate(612.25,230.9375)"/>
<path d="M0 0 C5.72430004 2.50288433 10.22912849 7.98112515 12.94921875 13.4921875 C14.95127236 19.91829129 14.79267176 26.89313522 11.75 32.9375 C8.15408569 38.56633178 2.32386395 43.45911855 -4.25 45.0625 C-11.26448042 45.96035349 -17.01339218 44.29280348 -23.25 41.0625 C-23.91 40.4025 -24.57 39.7425 -25.25 39.0625 C-28.39046253 39.43227726 -30.53059276 40.72994191 -33.09375 42.51171875 C-33.83560547 43.02323486 -34.57746094 43.53475098 -35.34179688 44.06176758 C-36.13650391 44.61888428 -36.93121094 45.17600098 -37.75 45.75 C-38.58080078 46.32580811 -39.41160156 46.90161621 -40.26757812 47.49487305 C-42.9326495 49.34470208 -45.59148172 51.20326851 -48.25 53.0625 C-50.02063494 54.29455601 -51.79146651 55.52632947 -53.5625 56.7578125 C-61.57090781 62.33736731 -69.55707327 67.92808521 -77.3515625 73.8046875 C-79.25 75.0625 -79.25 75.0625 -81.25 75.0625 C-80.26 78.5275 -80.26 78.5275 -79.25 82.0625 C-78.59 82.0625 -77.93 82.0625 -77.25 82.0625 C-76.96125 83.196875 -76.6725 84.33125 -76.375 85.5 C-76.00375 86.675625 -75.6325 87.85125 -75.25 89.0625 C-74.59 89.3925 -73.93 89.7225 -73.25 90.0625 C-73.58 91.7125 -73.91 93.3625 -74.25 95.0625 C-73.59 95.0625 -72.93 95.0625 -72.25 95.0625 C-71.92 96.0525 -71.59 97.0425 -71.25 98.0625 C-68.25476438 99.70504857 -65.18023332 100.29941861 -61.859375 100.92578125 C-55.66750697 102.14446795 -49.56203942 103.67132598 -43.4375 105.1875 C-29.80739968 108.53139166 -16.11121341 111.51871122 -2.37573242 114.39697266 C-1.6059758 114.55998367 -0.83621918 114.72299469 -0.0431366 114.89094543 C1.3981026 115.19612688 2.8401079 115.49772234 4.28300476 115.79496765 C7.94433757 116.57306455 11.32318001 117.55171147 14.75 119.0625 C14.75 121.0425 14.75 123.0225 14.75 125.0625 C7.45094179 125.59384906 0.83411239 123.83801793 -6.1857605 122.04333496 C-9.85073911 121.10701389 -13.52354161 120.2022145 -17.1953125 119.29296875 C-17.94697189 119.10598419 -18.69863129 118.91899963 -19.47306824 118.72634888 C-27.18712587 116.8139178 -34.93187487 115.04739643 -42.6875 113.3125 C-43.9677002 113.02552246 -45.24790039 112.73854492 -46.56689453 112.44287109 C-50.12736631 111.64685896 -53.68854647 110.85410647 -57.25 110.0625 C-59.2291873 109.62118627 -61.20835572 109.17978789 -63.1875 108.73828125 C-67.20749273 107.84252405 -71.22832844 106.9506881 -75.25 106.0625 C-75.34925781 107.28453125 -75.44851563 108.5065625 -75.55078125 109.765625 C-76.34738788 116.07730757 -80.14742882 120.45433393 -84.94140625 124.484375 C-87.30526929 126.11952838 -89.5199801 127.15249337 -92.25 128.0625 C-92.58 128.7225 -92.91 129.3825 -93.25 130.0625 C-99.38629943 132.81499645 -105.35311658 133.35356037 -112 133.0703125 C-114.28726353 132.89349988 -114.28726353 132.89349988 -116.25 134.0625 C-116.25 133.4025 -116.25 132.7425 -116.25 132.0625 C-116.97316406 131.95164062 -117.69632813 131.84078125 -118.44140625 131.7265625 C-126.01529394 129.93579629 -133.15223366 124.68545815 -137.25 118.0625 C-137.60665952 116.73521598 -137.942992 115.40213987 -138.25 114.0625 C-149.48843426 120.13568344 -160.59881433 126.38361489 -171.57446289 132.92016602 C-180.23074887 138.07095719 -188.95192795 143.1054622 -197.68408203 148.12597656 C-198.72806152 148.72635742 -199.77204102 149.32673828 -200.84765625 149.9453125 C-202.23223022 150.74026123 -202.23223022 150.74026123 -203.64477539 151.55126953 C-205.43520114 152.58985405 -207.20724793 153.66057534 -208.96264648 154.75732422 C-211.25 156.0625 -211.25 156.0625 -213.25 156.0625 C-212.755 157.42375 -212.755 157.42375 -212.25 158.8125 C-209.68734133 168.17750997 -210.76508251 175.97784103 -215.48046875 184.42578125 C-219.09621074 189.81347626 -223.60068823 193.56640338 -229.81640625 195.58984375 C-237.47353885 197.0770236 -245.76700903 197.44554241 -252.58203125 193.24609375 C-253.13246094 192.85550781 -253.68289063 192.46492187 -254.25 192.0625 C-255.301875 191.36125 -256.35375 190.66 -257.4375 189.9375 C-262.30201009 185.68437643 -265.69913942 178.12771166 -266.55859375 171.78515625 C-266.94960799 163.71604416 -264.87271403 157.68524541 -260.25 151.0625 C-253.97710724 144.74558694 -247.99920191 141.78243413 -239.0625 141.625 C-231.35369768 141.71542583 -225.17408196 143.35545797 -219.484375 148.73046875 C-219.07703125 149.17003906 -218.6696875 149.60960937 -218.25 150.0625 C-213.518169 148.35118563 -209.25002871 145.95358222 -204.875 143.5 C-203.67254639 142.82855957 -203.67254639 142.82855957 -202.44580078 142.14355469 C-197.02653317 139.10119656 -191.67376589 135.9646358 -186.36010742 132.7421875 C-171.80968693 123.92998785 -157.04797367 115.45149211 -142.25 107.0625 C-142.26160156 106.17046875 -142.27320313 105.2784375 -142.28515625 104.359375 C-142.29417969 103.18890625 -142.30320312 102.0184375 -142.3125 100.8125 C-142.32410156 99.65234375 -142.33570313 98.4921875 -142.34765625 97.296875 C-142.26782092 94.65272872 -142.03643778 92.56423909 -141.25 90.0625 C-142.00410156 89.835625 -142.75820313 89.60875 -143.53515625 89.375 C-148.71130134 87.54620426 -153.67476968 85.29537367 -158.6875 83.0625 C-160.91785335 82.07656183 -163.14832502 81.09089126 -165.37890625 80.10546875 C-168.79205227 78.59449358 -172.20476924 77.08256684 -175.61669922 75.56884766 C-178.78389272 74.16575599 -181.95411785 72.76973136 -185.125 71.375 C-186.09880615 70.94123047 -187.0726123 70.50746094 -188.07592773 70.06054688 C-188.97641846 69.66544922 -189.87690918 69.27035156 -190.8046875 68.86328125 C-191.59343262 68.51434814 -192.38217773 68.16541504 -193.19482422 67.8059082 C-195.35593496 66.8924225 -195.35593496 66.8924225 -198.25 67.0625 C-199.0234375 68.1453125 -199.0234375 68.1453125 -199.8125 69.25 C-204.23983087 74.3584587 -209.24846383 76.63462144 -215.921875 77.5859375 C-223.15088412 77.89077523 -228.63154472 77.51420942 -234.3828125 72.90234375 C-240.6971655 66.68046035 -243.75765225 61.15009342 -244.625 52.1875 C-244.44301841 45.49317727 -240.99442162 38.67869401 -236.25 34.0625 C-229.06835069 29.38978178 -222.85575315 27.12124575 -214.25 28.0625 C-207.13258143 29.86355409 -201.65974026 33.14385658 -197.25 39.0625 C-194.59888035 43.61933388 -193.8100792 47.18882088 -193.5625 52.4375 C-193.49675781 53.68273437 -193.43101562 54.92796875 -193.36328125 56.2109375 C-193.30720703 57.62246094 -193.30720703 57.62246094 -193.25 59.0625 C-187.73772423 61.55547364 -182.22417355 64.04559869 -176.70947266 66.53320312 C-174.83738309 67.37814277 -172.96563145 68.22383159 -171.09423828 69.0703125 C-168.38925347 70.29368696 -165.6830256 71.51427504 -162.9765625 72.734375 C-162.15322418 73.10745789 -161.32988586 73.48054077 -160.4815979 73.8649292 C-149.67557743 78.89854474 -149.67557743 78.89854474 -138.25 82.0625 C-137.88841797 80.95261719 -137.88841797 80.95261719 -137.51953125 79.8203125 C-136.0776066 76.68800849 -134.54311643 75.17088551 -131.9375 72.9375 C-131.17824219 72.27492188 -130.41898438 71.61234375 -129.63671875 70.9296875 C-121.89580157 64.87378176 -114.02240592 63.53999481 -104.3203125 63.6640625 C-99.96905559 64.22872943 -96.48875541 65.85297151 -92.625 67.87109375 C-90.36284647 69.00589116 -88.75061723 69.74685163 -86.25 70.0625 C-84.13436291 69.10808993 -84.13436291 69.10808993 -82.08203125 67.51953125 C-81.28007324 66.94638184 -80.47811523 66.37323242 -79.65185547 65.78271484 C-78.79736816 65.15316895 -77.94288086 64.52362305 -77.0625 63.875 C-76.17191895 63.2351416 -75.28133789 62.5952832 -74.36376953 61.93603516 C-72.53044272 60.61840291 -70.7006958 59.2957758 -68.87451172 57.96826172 C-65.1460692 55.2608922 -61.38863488 52.59562855 -57.625 49.9375 C-56.95130371 49.45998291 -56.27760742 48.98246582 -55.58349609 48.49047852 C-47.58653335 42.84550779 -39.42274512 37.44845882 -31.25 32.0625 C-31.40726563 31.35738281 -31.56453125 30.65226562 -31.7265625 29.92578125 C-32.91170877 23.44285424 -33.63517137 16.55419325 -30.1875 10.6875 C-22.55188303 0.27529505 -12.72835177 -3.7376906 0 0 Z " fill="#F7B741" transform="translate(612.25,230.9375)"/>
<path d="M0 0 C25.74 0 51.48 0 78 0 C78 5.61 78 11.22 78 17 C59.52 17 41.04 17 22 17 C22 23.93 22 30.86 22 38 C38.17 38 54.34 38 71 38 C71 43.28 71 48.56 71 54 C54.83 54 38.66 54 22 54 C22 61.26 22 68.52 22 76 C40.81 76 59.62 76 79 76 C79 81.28 79 86.56 79 92 C52.93 92 26.86 92 0 92 C0 61.64 0 31.28 0 0 Z " fill="#152D53" transform="translate(564,526)"/>
<path d="M0 0 C25.74 0 51.48 0 78 0 C78 5.61 78 11.22 78 17 C59.52 17 41.04 17 22 17 C22 23.93 22 30.86 22 38 C38.17 38 54.34 38 71 38 C71 43.28 71 48.56 71 54 C54.83 54 38.66 54 22 54 C22 61.26 22 68.52 22 76 C40.48 76 58.96 76 78 76 C78 81.28 78 86.56 78 92 C52.26 92 26.52 92 0 92 C0 61.64 0 31.28 0 0 Z " fill="#142C53" transform="translate(278,526)"/>
<path d="M0 0 C-0.28484846 1.73030291 -0.57819938 3.45920714 -0.875 5.1875 C-1.03742188 6.15042969 -1.19984375 7.11335937 -1.3671875 8.10546875 C-1.98039517 10.91032604 -2.85666343 13.37224747 -4 16 C-7.03608325 15.52561199 -9.56952802 14.77218879 -12.4375 13.625 C-23.44708076 9.42397576 -37.15327784 6.35601188 -48.625 10.3125 C-51.52417289 11.76208644 -52.99038871 12.5979794 -55 15 C-55.66680368 17.95720628 -55.66680368 17.95720628 -55 21 C-51.48449433 24.43866402 -48.60246981 25.6301369 -43.8125 26.5 C-42.58402344 26.73976563 -41.35554688 26.97953125 -40.08984375 27.2265625 C-39.43097168 27.35063477 -38.77209961 27.47470703 -38.09326172 27.60253906 C-5.61322358 33.76973082 -5.61322358 33.76973082 4 46.6875 C6.69360919 55.61008045 5.30267053 63.8743992 1 72 C-3.21628963 79.02714938 -11.17340659 81.95368953 -18.6640625 84.421875 C-38.86448963 89.42131181 -60.07803398 86.18293524 -78 76 C-77.71410149 74.29069188 -77.42098242 72.58259088 -77.125 70.875 C-76.96257812 69.92367187 -76.80015625 68.97234375 -76.6328125 67.9921875 C-75.97737066 64.89299956 -75.05397821 61.98479543 -74 59 C-73.12263184 59.3556604 -73.12263184 59.3556604 -72.22753906 59.71850586 C-69.56945479 60.79423394 -66.90975314 61.86590524 -64.25 62.9375 C-63.32960938 63.31068359 -62.40921875 63.68386719 -61.4609375 64.06835938 C-60.12675781 64.60493164 -60.12675781 64.60493164 -58.765625 65.15234375 C-57.94868164 65.48226318 -57.13173828 65.81218262 -56.29003906 66.15209961 C-50.28619548 68.3750579 -44.53899123 68.25562097 -38.1875 68.3125 C-37.11951172 68.34150391 -36.05152344 68.37050781 -34.95117188 68.40039062 C-28.40138387 68.45304817 -24.29150819 67.97785623 -19 64 C-17.56264754 61.12529507 -17.61827351 59.18105412 -18 56 C-21.72596207 52.23145551 -25.50813737 51.07207593 -30.5625 50.0625 C-32.07447665 49.73033846 -33.58618445 49.39695131 -35.09765625 49.0625 C-35.89187988 48.89105469 -36.68610352 48.71960938 -37.50439453 48.54296875 C-41.84817711 47.5978922 -46.17607945 46.59428474 -50.5 45.5625 C-51.31154541 45.38146729 -52.12309082 45.20043457 -52.95922852 45.01391602 C-62.72535877 42.66912484 -70.19735897 38.29184216 -76 30 C-78.89182935 24.21634129 -79.14138906 17.46493108 -77.125 11.34375 C-72.87711419 2.0654731 -66.86057255 -1.93190578 -57.74609375 -6.01953125 C-39.53173637 -12.52280821 -17.01255724 -7.68836721 0 0 Z " fill="#112A51" transform="translate(448,533)"/>
<path d="M0 0 C1.16724609 -0.01224609 2.33449219 -0.02449219 3.53710938 -0.03710938 C4.66826172 -0.03904297 5.79941406 -0.04097656 6.96484375 -0.04296875 C7.99085693 -0.04707764 9.01687012 -0.05118652 10.07397461 -0.05541992 C13.34885516 0.21077615 15.99033695 1.04748825 19.0625 2.1875 C22.38505042 3.1976816 25.7113086 4.19460373 29.0390625 5.1875 C31.54485126 6.01628802 33.7537587 6.9261389 36.0625 8.1875 C35.55308038 12.17795366 34.92622213 16.11947772 34.125 20.0625 C33.89490234 21.20332031 33.89490234 21.20332031 33.66015625 22.3671875 C33.46292969 22.96789062 33.26570312 23.56859375 33.0625 24.1875 C32.4025 24.5175 31.7425 24.8475 31.0625 25.1875 C28.84456084 24.32447719 26.66162909 23.37070186 24.5 22.375 C12.20493117 16.94131756 -1.1438002 14.45492391 -14.203125 19.23828125 C-16.19592158 20.32893343 -17.49526695 21.43249351 -18.9375 23.1875 C-19.60430368 26.14470628 -19.60430368 26.14470628 -18.9375 29.1875 C-15.42199433 32.62616402 -12.53996981 33.8176369 -7.75 34.6875 C-6.5228125 34.92597656 -5.295625 35.16445313 -4.03125 35.41015625 C-3.37253906 35.53406738 -2.71382813 35.65797852 -2.03515625 35.78564453 C31.06464908 42.12669197 31.06464908 42.12669197 39.28515625 53.9453125 C42.73133165 60.8376633 41.50033251 68.73498068 39.1640625 75.765625 C35.99799988 82.7264719 30.03510745 88.16489184 23.0625 91.1875 C3.35663801 97.89127747 -18.1229009 94.79301048 -37.01953125 87.21484375 C-39.13007334 86.08434972 -40.48095041 85.09257438 -41.9375 83.1875 C-41.73833519 77.3121382 -40.15943231 72.59742214 -37.9375 67.1875 C-35.05749819 68.33617124 -32.18166948 69.49422563 -29.30859375 70.66015625 C-27.99741489 71.19015132 -26.6862166 71.72009831 -25.375 72.25 C-24.3859668 72.6531543 -24.3859668 72.6531543 -23.37695312 73.06445312 C-16.34162221 75.89979754 -10.72142381 76.39784777 -3.1875 76.4375 C-2.22328125 76.458125 -1.2590625 76.47875 -0.265625 76.5 C5.88681225 76.53343716 10.5049557 75.90282986 16.0625 73.1875 C18.39293558 69.69184664 18.65013244 68.3009271 18.0625 64.1875 C13.42929535 59.42191807 8.02568832 58.05201668 1.65234375 56.890625 C0.41419922 56.6534375 -0.82394531 56.41625 -2.09960938 56.171875 C-4.67064092 55.68779495 -7.24355549 55.2135964 -9.81835938 54.75 C-21.95019772 52.39259885 -32.74103207 48.74970062 -39.9375 38.1875 C-43.12065604 32.92837264 -42.68936187 26.38529227 -41.3203125 20.5625 C-38.64910743 12.8089136 -34.21495171 8.32345189 -26.92578125 4.68359375 C-17.67068681 0.68785187 -10.00660755 0.00550721 0 0 Z " fill="#112A51" transform="translate(506.9375,524.8125)"/>
<path d="M0 0 C28.71 0 57.42 0 87 0 C87 5.61 87 11.22 87 17 C76.11 17 65.22 17 54 17 C54 41.75 54 66.5 54 92 C46.74 92 39.48 92 32 92 C32 67.25 32 42.5 32 17 C21.44 17 10.88 17 0 17 C0 11.39 0 5.78 0 0 Z " fill="#132A50" transform="translate(656,526)"/>
<path d="M0 0 C0.99 0.66 1.98 1.32 3 2 C3.47387695 4.42724609 3.47387695 4.42724609 3 7 C1.09838867 8.67822266 1.09838867 8.67822266 -1.58203125 10.1640625 C-2.56743896 10.72319336 -3.55284668 11.28232422 -4.56811523 11.85839844 C-6.17408569 12.73286621 -6.17408569 12.73286621 -7.8125 13.625 C-8.90312744 14.23891602 -9.99375488 14.85283203 -11.11743164 15.48535156 C-13.34743393 16.74047078 -15.58142802 17.98852377 -17.81933594 19.22949219 C-22.22434138 21.68152623 -26.58143624 24.21240688 -30.9375 26.75 C-32.46859937 27.63567712 -33.99984738 28.52109732 -35.53125 29.40625 C-40.01116159 32.00194048 -44.47615167 34.62256166 -48.9375 37.25 C-49.98164063 37.86415771 -49.98164063 37.86415771 -51.046875 38.49072266 C-54.25503048 40.37872828 -57.45948811 42.2724491 -60.65625 44.1796875 C-61.7390625 44.82164062 -62.821875 45.46359375 -63.9375 46.125 C-64.87464844 46.68445313 -65.81179688 47.24390625 -66.77734375 47.8203125 C-69 49 -69 49 -71 49 C-70.505 50.36125 -70.505 50.36125 -70 51.75 C-67.43734133 61.11500997 -68.51508251 68.91534103 -73.23046875 77.36328125 C-76.84621074 82.75097626 -81.35068823 86.50390338 -87.56640625 88.52734375 C-95.22353885 90.0145236 -103.51700903 90.38304241 -110.33203125 86.18359375 C-110.88246094 85.79300781 -111.43289063 85.40242188 -112 85 C-113.5778125 83.948125 -113.5778125 83.948125 -115.1875 82.875 C-120.05201009 78.62187643 -123.44913942 71.06521166 -124.30859375 64.72265625 C-124.69960799 56.65354416 -122.62271403 50.62274541 -118 44 C-111.72710724 37.68308694 -105.74920191 34.71993413 -96.8125 34.5625 C-89.10369768 34.65292583 -82.92408196 36.29295797 -77.234375 41.66796875 C-76.82703125 42.10753906 -76.4196875 42.54710937 -76 43 C-71.268169 41.28868563 -67.00002871 38.89108222 -62.625 36.4375 C-61.82336426 35.98987305 -61.02172852 35.54224609 -60.19580078 35.08105469 C-54.77653317 32.03869656 -49.42376589 28.9021358 -44.11010742 25.6796875 C-29.55968693 16.86748785 -14.79797367 8.38899211 0 0 Z " fill="#182F54" transform="translate(470,338)"/>
<path d="M0 0 C5.67126305 4.39443084 9.49298478 9.3850976 10.51171875 16.6484375 C10.56972656 17.87820313 10.62773437 19.10796875 10.6875 20.375 C10.75324219 21.62023437 10.81898438 22.86546875 10.88671875 24.1484375 C10.94279297 25.55996094 10.94279297 25.55996094 11 27 C16.4395132 29.4552877 21.87981402 31.90881934 27.32080078 34.36083984 C29.16541072 35.19240786 31.00981759 36.02442651 32.85400391 36.85693359 C43.52681505 41.6744817 54.21156517 46.44619012 65 51 C65 52.32 65 53.64 65 55 C64.34 55 63.68 55 63 55 C63 55.66 63 56.32 63 57 C58.91477983 56.4412449 55.50906486 55.54031321 51.75390625 53.84765625 C50.26624756 53.18407104 50.26624756 53.18407104 48.74853516 52.50708008 C47.69714355 52.03036865 46.64575195 51.55365723 45.5625 51.0625 C43.33219097 50.06735029 41.10171818 49.07256753 38.87109375 48.078125 C37.73655762 47.56958984 36.60202148 47.06105469 35.43310547 46.53710938 C30.00643731 44.10741923 24.56896687 41.70313995 19.125 39.3125 C18.15119385 38.87881104 17.1773877 38.44512207 16.17407227 37.99829102 C15.27358154 37.60311279 14.37309082 37.20793457 13.4453125 36.80078125 C12.65656738 36.45184814 11.86782227 36.10291504 11.05517578 35.7434082 C8.89406504 34.8299225 8.89406504 34.8299225 6 35 C5.484375 35.721875 4.96875 36.44375 4.4375 37.1875 C0.01016913 42.2959587 -4.99846383 44.57212144 -11.671875 45.5234375 C-18.90088412 45.82827523 -24.38154472 45.45170942 -30.1328125 40.83984375 C-36.4471655 34.61796035 -39.50765225 29.08759342 -40.375 20.125 C-40.19301841 13.43067727 -36.74442162 6.61619401 -32 2 C-21.42123329 -4.8830423 -11.35091568 -6.39778884 0 0 Z " fill="#03AC8B" transform="translate(408,263)"/>
<path d="M0 0 C5.72430004 2.50288433 10.22912849 7.98112515 12.94921875 13.4921875 C14.95127236 19.91829129 14.79267176 26.89313522 11.75 32.9375 C8.15408569 38.56633178 2.32386395 43.45911855 -4.25 45.0625 C-11.26448042 45.96035349 -17.01339218 44.29280348 -23.25 41.0625 C-23.91 40.4025 -24.57 39.7425 -25.25 39.0625 C-28.39046253 39.43227726 -30.53059276 40.72994191 -33.09375 42.51171875 C-33.83592773 43.02347656 -34.57810547 43.53523438 -35.34277344 44.0625 C-36.53435059 44.8978125 -36.53435059 44.8978125 -37.75 45.75 C-38.57790039 46.32363281 -39.40580078 46.89726562 -40.25878906 47.48828125 C-42.92705676 49.33993679 -45.58888603 51.20058111 -48.25 53.0625 C-50.06761141 54.32956614 -51.88531932 55.59649384 -53.703125 56.86328125 C-62.96693631 63.32247093 -62.96693631 63.32247093 -72.15625 69.88671875 C-75.92229097 72.5353107 -78.63074806 74.0625 -83.25 74.0625 C-82.82820214 69.14152493 -80.80869451 67.33960613 -77.25 64.0625 C-75.06367218 62.34427763 -72.87837498 60.68632227 -70.625 59.0625 C-69.98328857 58.59610107 -69.34157715 58.12970215 -68.68041992 57.64916992 C-56.42872992 48.80340017 -43.85679446 40.39153985 -31.25 32.0625 C-31.40726563 31.35738281 -31.56453125 30.65226562 -31.7265625 29.92578125 C-32.91170877 23.44285424 -33.63517137 16.55419325 -30.1875 10.6875 C-22.55188303 0.27529505 -12.72835177 -3.7376906 0 0 Z " fill="#2C9AD4" transform="translate(612.25,230.9375)"/>
<path d="M0 0 C6.29813325 3.53456445 10.39033435 8.06660542 12.6875 14.9375 C13.69387562 21.83382137 12.76786968 27.60855701 9.390625 33.703125 C6.06443446 38.06684287 1.52011851 40.52119075 -3.3125 42.9375 C-11.11668775 43.65442013 -17.55394841 43.99164247 -23.859375 38.93359375 C-24.33890625 38.60488281 -24.8184375 38.27617187 -25.3125 37.9375 C-26.3025 38.4325 -26.3025 38.4325 -27.3125 38.9375 C-32.09478439 30.96702602 -34.35975024 24.3627522 -33.3125 14.9375 C-31.48526813 8.29932852 -26.87895986 3.7728634 -21.3125 -0.0625 C-14.32180878 -3.42297697 -7.01408885 -3.22097132 0 0 Z " fill="#9FA3AA" transform="translate(663.3125,336.0625)"/>
<path d="M0 0 C0.69456299 -0.00022156 1.38912598 -0.00044312 2.10473633 -0.00067139 C11.18063521 0.03023375 19.94207364 0.80867161 28.875 2.4375 C29.63780273 2.5619751 30.40060547 2.6864502 31.18652344 2.81469727 C46.37415069 5.34295649 63.0668889 10.75298987 75.875 19.4375 C75.875 21.4375 75.875 21.4375 74.4375 23.25 C71.875 24.4375 71.875 24.4375 68.0625 23.5 C65.20962681 22.41739503 62.40244525 21.24050865 59.5859375 20.06640625 C52.69818446 17.2272361 45.8669962 14.69742369 38.6875 12.6875 C37.98826416 12.48914551 37.28902832 12.29079102 36.56860352 12.08642578 C24.87493699 8.92539071 13.31300907 7.96274191 1.25 7.9375 C0.10730652 7.93348175 0.10730652 7.93348175 -1.05847168 7.92938232 C-33.20242485 7.95370712 -64.08980624 19.18960516 -88.875 39.71484375 C-89.761875 40.44832031 -90.64875 41.18179688 -91.5625 41.9375 C-92.34496094 42.6078125 -93.12742187 43.278125 -93.93359375 43.96875 C-96.125 45.4375 -96.125 45.4375 -100.125 45.4375 C-101.115 44.7775 -102.105 44.1175 -103.125 43.4375 C-101.573462 39.1707705 -98.36151313 36.91358311 -94.875 34.25 C-93.93889893 33.52816528 -93.93889893 33.52816528 -92.98388672 32.79174805 C-76.93484135 20.58472245 -59.4992403 11.16983276 -40.125 5.4375 C-39.31305176 5.19338379 -38.50110352 4.94926758 -37.66455078 4.69775391 C-25.12056634 1.07796612 -12.98084386 -0.01931456 0 0 Z " fill="#142D54" transform="translate(509.125,207.5625)"/>
<path d="M0 0 C3.3 0 6.6 0 10 0 C12.64 6.93 15.28 13.86 18 21 C20.64 14.07 23.28 7.14 26 0 C29.3 0 32.6 0 36 0 C36 11.88 36 23.76 36 36 C34.02 36 32.04 36 30 36 C29.505 23.625 29.505 23.625 29 11 C25.7 19.25 22.4 27.5 19 36 C18.34 36 17.68 36 17 36 C14.03 28.74 11.06 21.48 8 14 C7.67 21.59 7.34 29.18 7 37 C4.69 37 2.38 37 0 37 C0 24.79 0 12.58 0 0 Z " fill="#0D95AB" transform="translate(343,642)"/>
<path d="M0 0 C2.64754496 0.42859224 5.29267965 0.867639 7.9375 1.3125 C8.67291016 1.43044922 9.40832031 1.54839844 10.16601562 1.66992188 C13.96608036 2.31709447 17.54884985 3.12158612 21.1875 4.40234375 C27.34844666 6.5505204 33.6983408 7.8486804 40.0625 9.25 C41.40975493 9.55055445 42.7569213 9.85150615 44.10400391 10.15283203 C51.43444742 11.78831333 58.77264485 13.38754407 66.11328125 14.9765625 C66.85137527 15.13668823 67.5894693 15.29681396 68.34992981 15.46179199 C71.93408042 16.23928372 75.51897124 17.01286642 79.10571289 17.77832031 C81.02951782 18.19355957 81.02951782 18.19355957 82.9921875 18.6171875 C84.13026855 18.86065918 85.26834961 19.10413086 86.44091797 19.35498047 C89 20 89 20 90 21 C90.04080783 22.99958364 90.04254356 25.00045254 90 27 C82.70094179 27.53134906 76.08411239 25.77551793 69.0642395 23.98083496 C65.39926089 23.04451389 61.72645839 22.1397145 58.0546875 21.23046875 C57.30302811 21.04348419 56.55136871 20.85649963 55.77693176 20.66384888 C48.06287413 18.7514178 40.31812513 16.98489643 32.5625 15.25 C30.64219971 14.81953369 30.64219971 14.81953369 28.68310547 14.38037109 C25.12263369 13.58435896 21.56145353 12.79160647 18 12 C16.0208127 11.55868627 14.04164428 11.11728789 12.0625 10.67578125 C8.04250727 9.78002405 4.02167156 8.8881881 0 8 C0 5.36 0 2.72 0 0 Z " fill="#283951" transform="translate(537,329)"/>
<path d="M0 0 C18 0 18 0 24 4 C26.47591878 7.71387818 26.53907468 10.69582561 26 15 C24.72166302 18.02764021 23.41983909 19.61952082 21 21.8125 C16.32291925 23.66384446 12.0050483 23.18090536 7 23 C7 27.62 7 32.24 7 37 C4.69 37 2.38 37 0 37 C0 24.79 0 12.58 0 0 Z " fill="#1094AB" transform="translate(488,642)"/>
<path d="M0 0 C2.31 0 4.62 0 7 0 C10.15596009 6.05010287 12.72766887 12.17721308 15.125 18.5625 C15.47175781 19.46935547 15.81851562 20.37621094 16.17578125 21.31054688 C18.01259811 26.16298067 19.66559664 30.98566984 21 36 C18.69 36 16.38 36 14 36 C12.5393715 33.35261084 12 32.10551666 12 29 C6.72 29.33 1.44 29.66 -4 30 C-4.66 31.98 -5.32 33.96 -6 36 C-8.31 36 -10.62 36 -13 36 C-11.39666192 28.57883519 -8.70089461 21.68396841 -5.9375 14.625 C-5.47794922 13.43777344 -5.01839844 12.25054688 -4.54492188 11.02734375 C-1.17900989 2.35801977 -1.17900989 2.35801977 0 0 Z " fill="#0C91A7" transform="translate(426,642)"/>
<path d="M0 0 C1.65 0 3.3 0 5 0 C5 0.99 5 1.98 5 3 C5.66 3 6.32 3 7 3 C7 2.34 7 1.68 7 1 C10.17412177 -0.58706088 13.53638667 -0.28477127 17 0 C20 1 20 1 22 2 C22.66 1.34 23.32 0.68 24 0 C26.0234375 -0.37109375 26.0234375 -0.37109375 28.375 -0.4375 C29.53128906 -0.49744141 29.53128906 -0.49744141 30.7109375 -0.55859375 C33 0 33 0 35.2734375 1.8515625 C37.81093677 6.47876706 37.43096806 10.63054913 37.25 15.8125 C37.23195313 16.79154297 37.21390625 17.77058594 37.1953125 18.77929688 C37.14832887 21.18720771 37.08265694 23.59309335 37 26 C34.69 26 32.38 26 30 26 C29.505 16.1 29.505 16.1 29 6 C27.35 6 25.7 6 24 6 C21.64641749 8.35358251 21.72128096 8.92968394 21.5859375 12.1328125 C21.54726563 12.93847656 21.50859375 13.74414062 21.46875 14.57421875 C21.42234375 15.83685547 21.42234375 15.83685547 21.375 17.125 C21.33632813 17.97449219 21.29765625 18.82398438 21.2578125 19.69921875 C21.16343506 21.79911684 21.08062414 23.89952891 21 26 C19.02 26 17.04 26 15 26 C14.67 19.73 14.34 13.46 14 7 C12.35 6.67 10.7 6.34 9 6 C6.64641749 8.35358251 6.72128096 8.92968394 6.5859375 12.1328125 C6.54726563 12.93847656 6.50859375 13.74414062 6.46875 14.57421875 C6.4378125 15.41597656 6.406875 16.25773438 6.375 17.125 C6.33632813 17.97449219 6.29765625 18.82398438 6.2578125 19.69921875 C6.16343506 21.79911684 6.08062414 23.89952891 6 26 C4.02 26 2.04 26 0 26 C0 17.42 0 8.84 0 0 Z " fill="#1193A8" transform="translate(641,653)"/>
<path d="M0 0 C3.82238078 1.59265866 5.81124522 3.52481832 8 7 C8.88005869 12.24863834 8.59133512 16.75162585 6.3125 21.5625 C2.86177178 25.19975407 0.50104668 25.86354121 -4.4375 26.3125 C-9.25978476 25.88949256 -12.53287493 24.61889663 -15.8125 21 C-18.24485063 16.90340947 -18.96236742 12.64732983 -18 8 C-13.94454436 0.06424128 -8.48466067 -1.56296381 0 0 Z " fill="#0E93A9" transform="translate(609,653)"/>
<path d="M0 0 C7.59 0 15.18 0 23 0 C23 1.98 23 3.96 23 6 C17.72 6 12.44 6 7 6 C7 8.97 7 11.94 7 15 C11.62 15 16.24 15 21 15 C21 16.98 21 18.96 21 21 C16.05 21 11.1 21 6 21 C6 24.3 6 27.6 6 31 C11.61 31 17.22 31 23 31 C23 32.65 23 34.3 23 36 C15.41 36 7.82 36 0 36 C0 24.12 0 12.24 0 0 Z " fill="#098CA2" transform="translate(387,642)"/>
<path d="M0 0 C1.26070313 0.02030273 1.26070313 0.02030273 2.546875 0.04101562 C4.61485938 0.07626536 6.68251271 0.1300698 8.75 0.1875 C9.25367757 1.64456726 9.75282556 3.10320096 10.25 4.5625 C10.5284375 5.37460937 10.806875 6.18671875 11.09375 7.0234375 C11.75 9.1875 11.75 9.1875 11.75 11.1875 C12.41 11.1875 13.07 11.1875 13.75 11.1875 C13.88277344 10.56101562 14.01554687 9.93453125 14.15234375 9.2890625 C14.32894531 8.47179687 14.50554687 7.65453125 14.6875 6.8125 C14.94853516 5.59433594 14.94853516 5.59433594 15.21484375 4.3515625 C15.75 2.1875 15.75 2.1875 16.75 0.1875 C18.07 0.1875 19.39 0.1875 20.75 0.1875 C14.984375 20.953125 14.984375 20.953125 11.75 24.1875 C9.75041636 24.22830783 7.74954746 24.23004356 5.75 24.1875 C5.75 23.1975 5.75 22.2075 5.75 21.1875 C7.07 20.5275 8.39 19.8675 9.75 19.1875 C8.71560804 13.71130727 7.40766855 9.14042775 4.75 4.1875 C4.75 3.5275 4.75 2.8675 4.75 2.1875 C3.43 2.1875 2.11 2.1875 0.75 2.1875 C1.0903125 3.30125 1.0903125 3.30125 1.4375 4.4375 C1.75 7.1875 1.75 7.1875 0.75 9.4375 C-2.04297229 11.88135076 -4.63276274 11.78558475 -8.25 12.1875 C-8.58 12.8475 -8.91 13.5075 -9.25 14.1875 C-8.63511719 14.15269531 -8.02023437 14.11789062 -7.38671875 14.08203125 C-6.17435547 14.04142578 -6.17435547 14.04142578 -4.9375 14 C-3.73673828 13.94779297 -3.73673828 13.94779297 -2.51171875 13.89453125 C-0.25 14.1875 -0.25 14.1875 1.55078125 15.5390625 C2.75 17.1875 2.75 17.1875 2.625 19.75 C1.75 22.1875 1.75 22.1875 -1.25 24.1875 C-3.66015625 24.41796875 -3.66015625 24.41796875 -6.3125 24.375 C-7.19035156 24.36855469 -8.06820313 24.36210938 -8.97265625 24.35546875 C-11.25 24.1875 -11.25 24.1875 -13.25 23.1875 C-13.1778125 22.42824219 -13.105625 21.66898438 -13.03125 20.88671875 C-12.9384375 19.89285156 -12.845625 18.89898438 -12.75 17.875 C-12.6571875 16.88886719 -12.564375 15.90273438 -12.46875 14.88671875 C-12.20961143 12.14047861 -12.20961143 12.14047861 -12.25 9.1875 C-12.58 8.8575 -12.91 8.5275 -13.25 8.1875 C-13.5625 5.8125 -13.5625 5.8125 -13.25 3.1875 C-9.65859307 -0.92947868 -5.02062588 -0.15297219 0 0 Z " fill="#818283" transform="translate(368.25,717.8125)"/>
<path d="M0 0 C2 3 2 3 1.85083008 5.00292969 C0.78008941 7.51617463 -0.38579422 8.38718587 -2.61328125 9.953125 C-3.36037354 10.48558838 -4.10746582 11.01805176 -4.87719727 11.56665039 C-6.08267212 12.39990845 -6.08267212 12.39990845 -7.3125 13.25 C-8.13484131 13.83064209 -8.95718262 14.41128418 -9.80444336 15.00952148 C-15.092676 18.72718685 -20.44168623 22.34832628 -25.8515625 25.88671875 C-28.37789191 27.58243117 -30.86129356 29.31297645 -33.3359375 31.08203125 C-34.09640381 31.62529053 -34.85687012 32.1685498 -35.64038086 32.72827148 C-37.13920772 33.80273074 -38.63497063 34.88148079 -40.12719727 35.96508789 C-48.54967702 42 -48.54967702 42 -54 42 C-53.57820214 37.07902493 -51.55869451 35.27710613 -48 32 C-45.81367218 30.28177763 -43.62837498 28.62382227 -41.375 27 C-40.41243286 26.30040161 -40.41243286 26.30040161 -39.43041992 25.58666992 C-31.78534978 20.06689835 -23.99364413 14.75865199 -16.18261719 9.47753906 C-14.18275594 8.123718 -12.18832868 6.76230464 -10.1953125 5.3984375 C-9.12023437 4.66882813 -8.04515625 3.93921875 -6.9375 3.1875 C-6.01839844 2.56230469 -5.09929688 1.93710937 -4.15234375 1.29296875 C-2 0 -2 0 0 0 Z " fill="#333F50" transform="translate(583,263)"/>
<path d="M0 0 C1.40765625 0.00580078 1.40765625 0.00580078 2.84375 0.01171875 C5.60963927 0.32491503 7.21569913 0.73452901 9.5 2.3125 C11.35886066 5.3212778 11.74029244 7.56968959 11.6953125 11.078125 C11.68886719 11.96757813 11.68242188 12.85703125 11.67578125 13.7734375 C11.65902344 14.69382812 11.64226563 15.61421875 11.625 16.5625 C11.61597656 17.49835937 11.60695313 18.43421875 11.59765625 19.3984375 C11.57413636 21.70338657 11.54126853 24.0078116 11.5 26.3125 C9.52 26.3125 7.54 26.3125 5.5 26.3125 C5.17 25.6525 4.84 24.9925 4.5 24.3125 C3.984375 24.6425 3.46875 24.9725 2.9375 25.3125 C-0.41402596 26.68748501 -2.90965387 26.69717994 -6.5 26.3125 C-8.9375 24.75 -8.9375 24.75 -10.5 22.3125 C-11 18.8125 -11 18.8125 -10.5 15.3125 C-8.28136971 12.40532927 -6.98055071 11.47268357 -3.5 10.3125 C-1.93881572 10.24509135 -0.3749748 10.22735544 1.1875 10.25 C2.39986328 10.26353516 2.39986328 10.26353516 3.63671875 10.27734375 C4.55904297 10.29474609 4.55904297 10.29474609 5.5 10.3125 C4.84 8.9925 4.18 7.6725 3.5 6.3125 C-2.07830016 6.18780901 -2.07830016 6.18780901 -7.5 7.3125 C-8.16 5.9925 -8.82 4.6725 -9.5 3.3125 C-6.3058585 0.45735937 -4.25421286 -0.07596809 0 0 Z " fill="#1D99AD" transform="translate(540.5,652.6875)"/>
<path d="M0 0 C5.59301931 0.59238772 10.16690531 2.61793475 15.23828125 4.89453125 C16.11848434 5.28315842 16.99868744 5.67178558 17.90556335 6.07218933 C20.71077463 7.31253331 23.5116481 8.56234779 26.3125 9.8125 C28.18396606 10.64190525 30.0557083 11.47068763 31.92773438 12.29882812 C36.16948389 14.17693824 40.40823782 16.06164742 44.64517212 17.95059204 C48.42878281 19.63672426 52.21440507 21.31832845 56 23 C56 24.32 56 25.64 56 27 C55.34 27 54.68 27 54 27 C54 27.66 54 28.32 54 29 C49.91477983 28.4412449 46.50906486 27.54031321 42.75390625 25.84765625 C41.76197266 25.40566895 40.77003906 24.96368164 39.74804688 24.50830078 C38.69681641 24.03118652 37.64558594 23.55407227 36.5625 23.0625 C34.33519679 22.05994981 32.10731755 21.05867851 29.87890625 20.05859375 C28.74469238 19.54925293 27.61047852 19.03991211 26.44189453 18.51513672 C23.07303368 17.03214974 19.68396643 15.61643385 16.27734375 14.22265625 C14.69360962 13.56608032 14.69360962 13.56608032 13.07788086 12.89624023 C11.05747293 12.06176224 9.03102023 11.24174269 6.99829102 10.43774414 C5.63788696 9.86914673 5.63788696 9.86914673 4.25 9.2890625 C3.45078125 8.96631348 2.6515625 8.64356445 1.828125 8.31103516 C0 7 0 7 -0.828125 4.48193359 C-1 2 -1 2 0 0 Z " fill="#38414B" transform="translate(417,291)"/>
<path d="M0 0 C4.76765267 4.21387813 7.55719556 8.99345088 10.5625 14.5625 C11.04847656 15.45493408 11.53445313 16.34736816 12.03515625 17.2668457 C15.45504174 23.67622688 18.07095976 29.98826385 20 37 C20.53425482 38.54425085 21.07557647 40.08608068 21.625 41.625 C23.20394033 46.32730865 24.13449355 51.1226166 25 56 C22.69 56 20.38 56 18 56 C17.74347656 55.00484375 17.48695313 54.0096875 17.22265625 52.984375 C12.94219716 37.09598926 6.68782792 22.05602489 -2.76171875 8.53125 C-4 6 -4 6 -3.33203125 3.78125 C-2 2 -2 2 0 0 Z " fill="#142C50" transform="translate(630,268)"/>
<path d="M0 0 C1.98 0.66 3.96 1.32 6 2 C5.72285156 3.26714844 5.44570313 4.53429687 5.16015625 5.83984375 C4.79403709 7.53901215 4.42816488 9.23823378 4.0625 10.9375 C3.88009766 11.76830078 3.69769531 12.59910156 3.50976562 13.45507812 C1.29144216 23.82069868 0.76782846 33.97574375 0.4375 44.5625 C0.39431641 45.85736328 0.35113281 47.15222656 0.30664062 48.48632812 C0.20132615 51.65746384 0.09919383 54.82866793 0 58 C-3.465 58.495 -3.465 58.495 -7 59 C-7.62271141 26.507238 -7.62271141 26.507238 -4 12 C-3.72542969 10.86949219 -3.45085937 9.73898437 -3.16796875 8.57421875 C-1.28874144 1.28874144 -1.28874144 1.28874144 0 0 Z " fill="#142E53" transform="translate(369,309)"/>
<path d="M0 0 C2.31 0 4.62 0 7 0 C7 9.9 7 19.8 7 30 C11.62 30 16.24 30 21 30 C21 31.98 21 33.96 21 36 C14.07 36 7.14 36 0 36 C0 24.12 0 12.24 0 0 Z " fill="#1499AC" transform="translate(451,642)"/>
<path d="M0 0 C1.32 0 2.64 0 4 0 C4 1.65 4 3.3 4 5 C7.63 5 11.26 5 15 5 C15.33 5.66 15.66 6.32 16 7 C16.66 6.34 17.32 5.68 18 5 C18.99 5 19.98 5 21 5 C21 6.32 21 7.64 21 9 C19.35 9.66 17.7 10.32 16 11 C15.67 14.63 15.34 18.26 15 22 C13.7315625 21.9690625 13.7315625 21.9690625 12.4375 21.9375 C8.93823444 21.906342 8.93823444 21.906342 5.3125 22.6875 C2 23 2 23 0.3046875 21.875 C-1.50289331 19.27727908 -1.29799007 17.44305193 -1.1875 14.3125 C-1.16042969 13.31863281 -1.13335937 12.32476563 -1.10546875 11.30078125 C-1.07066406 10.54152344 -1.03585937 9.78226563 -1 9 C-1.99 8.67 -2.98 8.34 -4 8 C-4 7.01 -4 6.02 -4 5 C-2.68 5 -1.36 5 0 5 C0 3.35 0 1.7 0 0 Z " fill="#F5F6F6" transform="translate(283,713)"/>
<path d="M0 0 C0 1.98 0 3.96 0 6 C-1.98 6 -3.96 6 -6 6 C-6 7.98 -6 9.96 -6 12 C-4.35 12 -2.7 12 -1 12 C-1 13.65 -1 15.3 -1 17 C-2.98 17 -4.96 17 -7 17 C-7 23.93 -7 30.86 -7 38 C-8.98 38 -10.96 38 -13 38 C-13 31.07 -13 24.14 -13 17 C-14.32 17 -15.64 17 -17 17 C-17 15.35 -17 13.7 -17 12 C-15.68 12 -14.36 12 -13 12 C-13.185625 10.4221875 -13.185625 10.4221875 -13.375 8.8125 C-13 5 -13 5 -10.4375 2.0625 C-7.04848801 -0.41253023 -4.15279896 -0.4152799 0 0 Z " fill="#0E8FA5" transform="translate(590,641)"/>
<path d="M0 0 C1.32 0 2.64 0 4 0 C4 8.25 4 16.5 4 25 C2.02 25 0.04 25 -2 25 C-3.19625 25.268125 -4.3925 25.53625 -5.625 25.8125 C-9 26 -9 26 -11.4375 24.125 C-13.51705374 19.96589252 -13.82636901 16.5663277 -13 12 C-11.4375 9.4375 -11.4375 9.4375 -9 8 C-3.02941176 7.48529412 -3.02941176 7.48529412 0 9 C0 6.03 0 3.06 0 0 Z " fill="#79797A" transform="translate(478,710)"/>
<path d="M0 0 C1.32 0 2.64 0 4 0 C4 8.25 4 16.5 4 25 C-9.45147771 25.37022416 -9.45147771 25.37022416 -11.88671875 23.7265625 C-13.84610021 20.68780249 -14.32556047 17.52801243 -14 14 C-12.69234933 11.13763102 -11.50327123 10.1304436 -9 8 C-4.85013645 7.33602183 -3.52572807 7.64951462 0 10 C0 6.7 0 3.4 0 0 Z " fill="#7B7B7C" transform="translate(623,710)"/>
<path d="M0 0 C2.475 0.495 2.475 0.495 5 1 C5.33 0.67 5.66 0.34 6 0 C9.7466522 -0.35345775 12.15177284 -0.50023653 15.4375 1.4375 C17.75587974 5.23964277 17.77201236 8.66240478 17 13 C15.4375 15.5625 15.4375 15.5625 13 17 C7.02941176 17.51470588 7.02941176 17.51470588 4 16 C4 18.64 4 21.28 4 24 C2.68 24 1.36 24 0 24 C0 16.08 0 8.16 0 0 Z " fill="#797879" transform="translate(649,718)"/>
<path d="M0 0 C1.65 0 3.3 0 5 0 C14 19.40163934 14 19.40163934 14 24 C12.35 23.67 10.7 23.34 9 23 C8.67 21.68 8.34 20.36 8 19 C4.37 19 0.74 19 -3 19 C-3.33 20.65 -3.66 22.3 -4 24 C-5.65 24 -7.3 24 -9 24 C-6.41874331 15.82602049 -3.22988119 7.93359166 0 0 Z " fill="#797879" transform="translate(594,711)"/>
<path d="M0 0 C1.98 0 3.96 0 6 0 C6 2.31 6 4.62 6 7 C7.98 7 9.96 7 12 7 C12 8.65 12 10.3 12 12 C10.02 12 8.04 12 6 12 C6.33 16.62 6.66 21.24 7 26 C9.475 26.99 9.475 26.99 12 28 C12 29.32 12 30.64 12 32 C9.15916359 33.42041821 7.14522722 33.31452272 4 33 C1.8203125 31.52734375 1.8203125 31.52734375 0 29 C-0.48497961 26.0666556 -0.37774803 23.21277158 -0.25 20.25 C-0.23195313 19.45722656 -0.21390625 18.66445313 -0.1953125 17.84765625 C-0.14833082 15.89791652 -0.07659044 13.94880122 0 12 C-1.32 12 -2.64 12 -4 12 C-4 10.68 -4 9.36 -4 8 C-2.68 8 -1.36 8 0 8 C0 5.36 0 2.72 0 0 Z " fill="#0C8DA4" transform="translate(559,646)"/>
<path d="M0 0 C2.75329021 1.79562405 4.52627461 3.05254922 6 6 C6.53252058 9.99390436 6.35389756 11.51741242 3.9375 14.8125 C0.45461266 17.40613951 -1.68383337 17.92152424 -6 18 C-9.39808026 16.89791992 -9.94731917 16.07902124 -12 13 C-12.55377603 8.09512657 -12.75639171 6.10020612 -9.9375 2 C-6.23727467 -0.51930235 -4.3968344 -0.7066341 0 0 Z " fill="#727172" transform="translate(733,718)"/>
<path d="M0 0 C5.28 0 10.56 0 16 0 C16 1.32 16 2.64 16 4 C12.37 4 8.74 4 5 4 C5 5.98 5 7.96 5 10 C7.97 10 10.94 10 14 10 C14 11.32 14 12.64 14 14 C11.03 14 8.06 14 5 14 C5 16.31 5 18.62 5 21 C8.63 21 12.26 21 16 21 C16 21.99 16 22.98 16 24 C10.72 24 5.44 24 0 24 C0 16.08 0 8.16 0 0 Z " fill="#7B7B7C" transform="translate(420,711)"/>
<path d="M0 0 C1.98 0 3.96 0 6 0 C6 12.21 6 24.42 6 37 C4.02 37 2.04 37 0 37 C0 24.79 0 12.58 0 0 Z " fill="#0F96AE" transform="translate(519,642)"/>
<path d="M0 0 C1.16015625 0.02320313 1.16015625 0.02320313 2.34375 0.046875 C4.5 0.25 4.5 0.25 7.5 1.25 C7.17 2.57 6.84 3.89 6.5 5.25 C3.53 5.25 0.56 5.25 -2.5 5.25 C-2.5 6.24 -2.5 7.23 -2.5 8.25 C-1.87351562 8.51554688 -1.24703125 8.78109375 -0.6015625 9.0546875 C0.62433594 9.58449219 0.62433594 9.58449219 1.875 10.125 C2.68710937 10.47304688 3.49921875 10.82109375 4.3359375 11.1796875 C6.5 12.25 6.5 12.25 8.5 14.25 C8.86599043 17.61711191 8.87424895 19.59060899 7.1875 22.5625 C4.65361874 25.09638126 2.58962735 25.24348165 -0.9375 25.5 C-4.63559064 25.24048487 -5.88340697 24.7619293 -8.5 22.25 C-8.005 20.765 -8.005 20.765 -7.5 19.25 C-4.2 19.58 -0.9 19.91 2.5 20.25 C2.5 18.93 2.5 17.61 2.5 16.25 C1.94570313 15.98445312 1.39140625 15.71890625 0.8203125 15.4453125 C0.09585937 15.09210937 -0.62859375 14.73890625 -1.375 14.375 C-2.09429687 14.02695312 -2.81359375 13.67890625 -3.5546875 13.3203125 C-5.5 12.25 -5.5 12.25 -7.5 10.25 C-8.06549439 4.02956167 -8.06549439 4.02956167 -6.26171875 1.54296875 C-4.02058787 -0.10185236 -2.75352305 -0.0917841 0 0 Z " fill="#6C6B6C" transform="translate(269.5,710.75)"/>
<path d="M0 0 C1.98 0 3.96 0 6 0 C6.33 0.66 6.66 1.32 7 2 C7.99 1.34 8.98 0.68 10 0 C12.6875 -0.125 12.6875 -0.125 15 0 C15 1.98 15 3.96 15 6 C13.865625 6.28875 12.73125 6.5775 11.5625 6.875 C10.386875 7.24625 9.21125 7.6175 8 8 C6.414131 11.171738 6.62133555 14.63513822 6.4375 18.125 C6.39431641 18.87910156 6.35113281 19.63320313 6.30664062 20.41015625 C6.2005168 22.27321888 6.09974999 24.13658524 6 26 C4.02 26 2.04 26 0 26 C0 17.42 0 8.84 0 0 Z " fill="#1392AA" transform="translate(622,653)"/>
<path d="M0 0 C1.40765625 0.00580078 1.40765625 0.00580078 2.84375 0.01171875 C5.55492518 0.31871947 7.21624436 0.8436299 9.5 2.3125 C10.7263757 4.76525141 10.61415314 6.3630781 10.59765625 9.1015625 C10.59443359 10.04257812 10.59121094 10.98359375 10.58789062 11.953125 C10.57951172 12.93796875 10.57113281 13.9228125 10.5625 14.9375 C10.55798828 15.93007813 10.55347656 16.92265625 10.54882812 17.9453125 C10.53702145 20.4011016 10.520554 22.85677104 10.5 25.3125 C9.18 25.3125 7.86 25.3125 6.5 25.3125 C6.5 24.3225 6.5 23.3325 6.5 22.3125 C5.51 21.9825 4.52 21.6525 3.5 21.3125 C4.16 18.6725 4.82 16.0325 5.5 13.3125 C3.85 13.3125 2.2 13.3125 0.5 13.3125 C0.5 12.3225 0.5 11.3325 0.5 10.3125 C2.15 10.3125 3.8 10.3125 5.5 10.3125 C4.84 8.9925 4.18 7.6725 3.5 6.3125 C-2.07830016 6.18780901 -2.07830016 6.18780901 -7.5 7.3125 C-8.16 5.9925 -8.82 4.6725 -9.5 3.3125 C-6.3058585 0.45735937 -4.25421286 -0.07596809 0 0 Z " fill="#058AA0" transform="translate(540.5,652.6875)"/>
<path d="M0 0 C2.4375 1.625 2.4375 1.625 4 4 C4.25 7.25 4.25 7.25 4 10 C0.37 10 -3.26 10 -7 10 C-6.67 10.99 -6.34 11.98 -6 13 C-4.72125 12.979375 -3.4425 12.95875 -2.125 12.9375 C1.75 12.875 1.75 12.875 4 14 C4 14.66 4 15.32 4 16 C0.2626144 18.4915904 -1.57331583 18.45793285 -6 18 C-8.75329021 16.20437595 -10.52627461 14.94745078 -12 12 C-12.49055907 7.66672826 -12.47744439 5.67999656 -9.9375 2.0625 C-6.25937488 -0.52001338 -4.40768137 -0.72125695 0 0 Z " fill="#838383" transform="translate(497,718)"/>
<path d="M0 0 C2.5 2.1875 2.5 2.1875 4 5 C4 6.65 4 8.3 4 10 C0.04 10 -3.92 10 -8 10 C-7.01 11.485 -7.01 11.485 -6 13 C-4.02252878 13.36297936 -4.02252878 13.36297936 -1.875 13.1875 C-0.59625 13.125625 0.6825 13.06375 2 13 C2.33 13.99 2.66 14.98 3 16 C-0.41540279 18.10178633 -3.02251415 18.56821226 -7 18 C-10.02883418 15.95882914 -11.70071921 14.46257223 -12.44921875 10.8046875 C-12.62771901 7.07464749 -12.40341332 4.68916442 -10.5 1.4375 C-6.97342239 -0.59028212 -3.96785395 -0.9431784 0 0 Z " fill="#7D7D7E" transform="translate(349,718)"/>
<path d="M0 0 C2.2109375 1.03515625 2.2109375 1.03515625 4 3 C4.29642569 5.71229503 4.38061189 7.99739732 4.25 10.6875 C4.23195313 11.38939453 4.21390625 12.09128906 4.1953125 12.81445312 C4.14826213 14.54355436 4.07651873 16.27195205 4 18 C2.68 18 1.36 18 0 18 C0 17.34 0 16.68 0 16 C-0.99 16.66 -1.98 17.32 -3 18 C-9.56603774 17.43396226 -9.56603774 17.43396226 -11 16 C-11.1875 13.0625 -11.1875 13.0625 -11 10 C-8.60236815 7.60236815 -7.66726502 7.65719414 -4.375 7.375 C-3.55773437 7.30023437 -2.74046875 7.22546875 -1.8984375 7.1484375 C-1.27195312 7.09945312 -0.64546875 7.05046875 0 7 C-0.33 6.01 -0.66 5.02 -1 4 C-1.7425 4 -2.485 4 -3.25 4 C-5.5 4 -7.75 4 -10 4 C-9.67 3.01 -9.34 2.02 -9 1 C-5.94306678 -0.52846661 -3.37015453 -0.23242445 0 0 Z " fill="#767676" transform="translate(641,718)"/>
<path d="M0 0 C2.4375 1.625 2.4375 1.625 4 4 C4 5.98 4 7.96 4 10 C0.04 10 -3.92 10 -8 10 C-7.01 11.485 -7.01 11.485 -6 13 C-4.02252878 13.36297936 -4.02252878 13.36297936 -1.875 13.1875 C-0.59625 13.125625 0.6825 13.06375 2 13 C2.33 13.99 2.66 14.98 3 16 C-0.40728075 18.09678815 -3.03207421 18.4133256 -7 18 C-10.1359157 16.22015595 -10.84102736 15.47691793 -12 12 C-12.48371102 7.64660085 -12.48792815 5.69492797 -9.9375 2.0625 C-6.25937488 -0.52001338 -4.40768137 -0.72125695 0 0 Z " fill="#737374" transform="translate(552,718)"/>
<path d="M0 0 C1.7421875 1.06640625 1.7421875 1.06640625 3 3 C3.29296875 6.35546875 3.29296875 6.35546875 3.1875 10.1875 C3.16042969 11.45980469 3.13335937 12.73210938 3.10546875 14.04296875 C3.07066406 15.01878906 3.03585937 15.99460937 3 17 C1.06494977 17.24900646 -0.87325934 17.47356242 -2.8125 17.6875 C-3.89144531 17.81511719 -4.97039062 17.94273437 -6.08203125 18.07421875 C-9 18 -9 18 -10.890625 16.67578125 C-12 15 -12 15 -11.9375 12.5 C-10.78339715 9.42239241 -9.91730564 8.49807587 -7 7 C-3.75 6.8125 -3.75 6.8125 -1 7 C-1.33 6.01 -1.66 5.02 -2 4 C-2.7425 4 -3.485 4 -4.25 4 C-6.5 4 -8.75 4 -11 4 C-10.67 3.01 -10.34 2.02 -10 1 C-6.88450128 -0.55774936 -3.3955612 -0.56480622 0 0 Z " fill="#787979" transform="translate(318,718)"/>
<path d="M0 0 C1.7421875 1.06640625 1.7421875 1.06640625 3 3 C3.29296875 6.35546875 3.29296875 6.35546875 3.1875 10.1875 C3.16042969 11.45980469 3.13335938 12.73210938 3.10546875 14.04296875 C3.07066406 15.01878906 3.03585937 15.99460937 3 17 C1.06494977 17.24900646 -0.87325934 17.47356242 -2.8125 17.6875 C-3.89144531 17.81511719 -4.97039063 17.94273437 -6.08203125 18.07421875 C-9 18 -9 18 -10.88671875 16.7109375 C-12 15 -12 15 -12 11.9375 C-11 9 -11 9 -8.75 7.625 C-6.05451551 7.01238989 -3.75279705 6.84269731 -1 7 C-1.33 6.01 -1.66 5.02 -2 4 C-2.7425 4 -3.485 4 -4.25 4 C-6.5 4 -8.75 4 -11 4 C-10.67 3.01 -10.34 2.02 -10 1 C-6.88450128 -0.55774936 -3.3955612 -0.56480622 0 0 Z " fill="#6B6B6C" transform="translate(693,718)"/>
<path d="M0 0 C1.32 0 2.64 0 4 0 C4 0.66 4 1.32 4 2 C4.99 1.34 5.98 0.68 7 0 C12.13699457 -0.5351036 12.13699457 -0.5351036 14.67578125 1.0390625 C16.7170977 4.06189689 16.31530342 7.17782142 16.1875 10.6875 C16.16719727 11.7403418 16.16719727 11.7403418 16.14648438 12.81445312 C16.11120182 14.54329829 16.05739583 16.27174765 16 18 C14.35 17.67 12.7 17.34 11 17 C11 12.71 11 8.42 11 4 C9.35 4.33 7.7 4.66 6 5 C5.67 9.29 5.34 13.58 5 18 C3.35 18 1.7 18 0 18 C0 12.06 0 6.12 0 0 Z " fill="#909090" transform="translate(504,718)"/>
<path d="M0 0 C2.375 1.5625 2.375 1.5625 4 4 C4.59986967 8.12410397 4.36653285 10.29625692 2.4375 14 C0 16 0 16 -3.625 16 C-7 15 -7 15 -9 12 C-9.30078125 9.84375 -9.30078125 9.84375 -9.3125 7.5 C-9.32925781 6.7265625 -9.34601562 5.953125 -9.36328125 5.15625 C-8.47169148 -0.13576671 -4.7765221 -0.6823603 0 0 Z " fill="#F5FAFA" transform="translate(607,658)"/>
<path d="M0 0 C1.32 0 2.64 0 4 0 C-1.765625 20.765625 -1.765625 20.765625 -5 24 C-6.99958364 24.04080783 -9.00045254 24.04254356 -11 24 C-11 23.01 -11 22.02 -11 21 C-9.68 20.34 -8.36 19.68 -7 19 C-8.16194152 12.53287812 -10.1248748 6.90377651 -13 1 C-11.35 1 -9.7 1 -8 1 C-7.49596232 2.29009643 -6.99690074 3.58213789 -6.5 4.875 C-6.2215625 5.59429688 -5.943125 6.31359375 -5.65625 7.0546875 C-5 9 -5 9 -5 11 C-4.34 11 -3.68 11 -3 11 C-2.86722656 10.37351562 -2.73445313 9.74703125 -2.59765625 9.1015625 C-2.42105469 8.28429687 -2.24445313 7.46703125 -2.0625 6.625 C-1.88847656 5.81289063 -1.71445312 5.00078125 -1.53515625 4.1640625 C-1 2 -1 2 0 0 Z " fill="#787878" transform="translate(385,718)"/>
<path d="M0 0 C2.475 0.495 2.475 0.495 5 1 C5.33 0.67 5.66 0.34 6 0 C9.4375 -0.1875 9.4375 -0.1875 13 0 C15 2 15 2 15.1953125 5.4765625 C15.18201493 6.85950968 15.15816232 8.24238654 15.125 9.625 C15.11597656 10.33140625 15.10695313 11.0378125 15.09765625 11.765625 C15.07407603 13.51056098 15.03820461 15.25532295 15 17 C13.68 17 12.36 17 11 17 C10.67 12.71 10.34 8.42 10 4 C8.35 4.33 6.7 4.66 5 5 C4.67 8.96 4.34 12.92 4 17 C2.68 17 1.36 17 0 17 C0 11.39 0 5.78 0 0 Z " fill="#777778" transform="translate(742,718)"/>
<path d="M0 0 C1.1721449 2.95619219 2.33677476 5.91528789 3.5 8.875 C3.83386719 9.71675781 4.16773438 10.55851562 4.51171875 11.42578125 C4.98544922 12.63427734 4.98544922 12.63427734 5.46875 13.8671875 C5.76201172 14.61081543 6.05527344 15.35444336 6.35742188 16.12060547 C7 18 7 18 7 20 C6.34 20 5.68 20 5 20 C5 19.01 5 18.02 5 17 C4.01 17.99 3.02 18.98 2 20 C2.350625 20.9075 2.70125 21.815 3.0625 22.75 C4.00170571 26.00591313 3.95514676 26.92749994 3 30 C2.80365967 29.45585449 2.60731934 28.91170898 2.4050293 28.35107422 C1.50294074 25.85767283 0.59526796 23.36633902 -0.3125 20.875 C-0.62123047 20.0190625 -0.92996094 19.163125 -1.24804688 18.28125 C-2.59058108 14.60694585 -3.93937858 11.11795861 -5.73046875 7.6328125 C-7 5 -7 5 -7 1 C-4 0 -4 0 0 0 Z " fill="#78663E" transform="translate(519,361)"/>
<path d="M0 0 C1.32 0 2.64 0 4 0 C4 1.65 4 3.3 4 5 C5.32 5 6.64 5 8 5 C8 5.99 8 6.98 8 8 C6.68 8 5.36 8 4 8 C4 11.63 4 15.26 4 19 C5.32 19 6.64 19 8 19 C7.67 20.32 7.34 21.64 7 23 C2.52028796 23.3632199 2.52028796 23.3632199 0.34375 21.84375 C-1.53015399 19.27257941 -1.29842721 17.4554375 -1.1875 14.3125 C-1.16042969 13.31863281 -1.13335937 12.32476563 -1.10546875 11.30078125 C-1.07066406 10.54152344 -1.03585937 9.78226563 -1 9 C-1.99 8.67 -2.98 8.34 -4 8 C-4 7.01 -4 6.02 -4 5 C-2.68 5 -1.36 5 0 5 C0 3.35 0 1.7 0 0 Z " fill="#717070" transform="translate(283,713)"/>
<path d="M0 0 C1.32 0 2.64 0 4 0 C4 1.32 4 2.64 4 4 C5.65 4 7.3 4 9 4 C9 5.32 9 6.64 9 8 C7.68 8 6.36 8 5 8 C5 11.3 5 14.6 5 18 C6.32 18 7.64 18 9 18 C8.67 19.32 8.34 20.64 8 22 C3.52028796 22.3632199 3.52028796 22.3632199 1.34375 20.84375 C-0.53015399 18.27257941 -0.29842721 16.4554375 -0.1875 13.3125 C-0.16042969 12.31863281 -0.13335937 11.32476563 -0.10546875 10.30078125 C-0.07066406 9.54152344 -0.03585937 8.78226563 0 8 C-0.99 7.67 -1.98 7.34 -3 7 C-3 6.01 -3 5.02 -3 4 C-2.01 4 -1.02 4 0 4 C0 2.68 0 1.36 0 0 Z " fill="#878788" transform="translate(326,714)"/>
<path d="M0 0 C1.32 0 2.64 0 4 0 C4 1.65 4 3.3 4 5 C5.32 5 6.64 5 8 5 C8 5.99 8 6.98 8 8 C6.68 8 5.36 8 4 8 C4 11.63 4 15.26 4 19 C5.32 19 6.64 19 8 19 C7.67 20.32 7.34 21.64 7 23 C2.52028796 23.3632199 2.52028796 23.3632199 0.34375 21.84375 C-1.53015399 19.27257941 -1.29842721 17.4554375 -1.1875 14.3125 C-1.16042969 13.31863281 -1.13335938 12.32476563 -1.10546875 11.30078125 C-1.07066406 10.54152344 -1.03585937 9.78226563 -1 9 C-1.99 9 -2.98 9 -4 9 C-3.67 7.68 -3.34 6.36 -3 5 C-2.01 5 -1.02 5 0 5 C0 3.35 0 1.7 0 0 Z " fill="#908F90" transform="translate(702,713)"/>
<path d="M0 0 C1.9375 1.5 1.9375 1.5 3 3 C2.67 3.66 2.34 4.32 2 5 C0.88625 4.79375 -0.2275 4.5875 -1.375 4.375 C-2.57125 4.25125 -3.7675 4.1275 -5 4 C-5.66 4.66 -6.32 5.32 -7 6 C-6.67673447 9.59679066 -6.67673447 9.59679066 -6 13 C-3.36 13 -0.72 13 2 13 C2.33 13.99 2.66 14.98 3 16 C-0.41540279 18.10178633 -3.02251415 18.56821226 -7 18 C-10.03155153 15.95699788 -11.68092107 14.44614806 -12.484375 10.8046875 C-12.72699155 6.72064219 -12.5488542 4.68190976 -9.9375 1.4375 C-6.31218785 -0.33658892 -3.98989218 -0.51720825 0 0 Z " fill="#767778" transform="translate(535,718)"/>
<path d="M0 0 C2.3125 0.0625 2.3125 0.0625 5 1 C7.16885104 4.96376224 8 7.46077616 8 12 C8.66 12 9.32 12 10 12 C10.12375 10.948125 10.2475 9.89625 10.375 8.8125 C10.91140782 5.54041229 11.63880035 2.99463924 13 0 C14.32 0 15.64 0 17 0 C16.34496718 4.05819183 15.05440879 7.53971282 13.4375 11.3125 C12.98246094 12.38113281 12.52742188 13.44976563 12.05859375 14.55078125 C11.70925781 15.35902344 11.35992187 16.16726563 11 17 C9.35 17 7.7 17 6 17 C5.18710947 14.72930578 4.37467262 12.45845099 3.5625 10.1875 C3.21735352 9.22360352 3.21735352 9.22360352 2.86523438 8.24023438 C1.88582149 5.50071717 0.92004638 2.76013914 0 0 Z " fill="#6B6B6C" transform="translate(437,718)"/>
<path d="M0 0 C1.32 0 2.64 0 4 0 C4 1.65 4 3.3 4 5 C5.32 5 6.64 5 8 5 C8 5.99 8 6.98 8 8 C6.68 8 5.36 8 4 8 C4 11.63 4 15.26 4 19 C5.32 19 6.64 19 8 19 C7.67 20.32 7.34 21.64 7 23 C4.625 23.125 4.625 23.125 2 23 C0 21 0 21 -0.1953125 17.9609375 C-0.16050781 16.18589844 -0.16050781 16.18589844 -0.125 14.375 C-0.10695313 13.18648437 -0.08890625 11.99796875 -0.0703125 10.7734375 C-0.04710937 9.85820313 -0.02390625 8.94296875 0 8 C-0.99 8 -1.98 8 -3 8 C-3 7.01 -3 6.02 -3 5 C-2.01 5 -1.02 5 0 5 C0 3.35 0 1.7 0 0 Z " fill="#757576" transform="translate(671,713)"/>
<path d="M0 0 C8.625 -0.25 8.625 -0.25 12 2 C12.3125 5.5 12.3125 5.5 12 9 C10 11 10 11 7.6171875 11.1953125 C6.71226562 11.17210937 5.80734375 11.14890625 4.875 11.125 C2.461875 11.063125 2.461875 11.063125 0 11 C0 7.37 0 3.74 0 0 Z " fill="#F8FBFB" transform="translate(495,648)"/>
<path d="M0 0 C1.26070313 0.02030273 1.26070313 0.02030273 2.546875 0.04101562 C4.61485938 0.07626536 6.68251271 0.1300698 8.75 0.1875 C8.75 0.5175 8.75 0.8475 8.75 1.1875 C6.11 1.5175 3.47 1.8475 0.75 2.1875 C1.08 3.8375 1.41 5.4875 1.75 7.1875 C1.09 6.8575 0.43 6.5275 -0.25 6.1875 C-0.25 5.5275 -0.25 4.8675 -0.25 4.1875 C-0.91 4.1875 -1.57 4.1875 -2.25 4.1875 C-2.58 5.8375 -2.91 7.4875 -3.25 9.1875 C-4.72906892 9.21439216 -6.20827483 9.23384621 -7.6875 9.25 C-8.92306641 9.26740234 -8.92306641 9.26740234 -10.18359375 9.28515625 C-12.25 9.1875 -12.25 9.1875 -13.25 8.1875 C-13.5625 5.8125 -13.5625 5.8125 -13.25 3.1875 C-9.65859307 -0.92947868 -5.02062588 -0.15297219 0 0 Z " fill="#8A8A8B" transform="translate(368.25,717.8125)"/>
<path d="M0 0 C4 6 4 6 4 11 C1.69 11.33 -0.62 11.66 -3 12 C-3 12.66 -3 13.32 -3 14 C-3.66 14 -4.32 14 -5 14 C-5.33 15.65 -5.66 17.3 -6 19 C-7.65 19 -9.3 19 -11 19 C-9.33333333 14 -7.66666667 9 -6 4 C-5.01 4.99 -4.02 5.98 -3 7 C-2.01 4.69 -1.02 2.38 0 0 Z " fill="#7C7C7D" transform="translate(596,716)"/>
<path d="M0 0 C0.886875 0.12375 1.77375 0.2475 2.6875 0.375 C2.6875 1.365 2.6875 2.355 2.6875 3.375 C1.0375 4.035 -0.6125 4.695 -2.3125 5.375 C-2.3125 7.685 -2.3125 9.995 -2.3125 12.375 C0.6575 13.365 3.6275 14.355 6.6875 15.375 C2.86661786 17.92225476 0.16191483 17.94481066 -4.3125 17.375 C-6.25 16.375 -6.25 16.375 -7.3125 14.375 C-9.0102492 7.90233119 -9.0102492 7.90233119 -7.46484375 4.51953125 C-5.20884855 1.46559562 -3.77604553 0.42747685 0 0 Z " fill="#757576" transform="translate(617.3125,717.625)"/>
<path d="M0 0 C1.32 0 2.64 0 4 0 C4 0.66 4 1.32 4 2 C5.65 1.67 7.3 1.34 9 1 C9 1.66 9 2.32 9 3 C8.35708008 3.24024902 7.71416016 3.48049805 7.05175781 3.72802734 C4.83036588 4.79913015 4.83036588 4.79913015 4.36230469 6.97119141 C4.29946289 7.75671387 4.23662109 8.54223633 4.171875 9.3515625 C4.09453125 10.20234375 4.0171875 11.053125 3.9375 11.9296875 C3.8446875 13.26386719 3.8446875 13.26386719 3.75 14.625 C3.67265625 15.5221875 3.5953125 16.419375 3.515625 17.34375 C3.3268656 19.56167297 3.15575406 21.77955496 3 24 C2.01 24 1.02 24 0 24 C0 16.08 0 8.16 0 0 Z " fill="#6E6E6E" transform="translate(649,718)"/>
<path d="M0 0 C1.32 0 2.64 0 4 0 C4.33 0.66 4.66 1.32 5 2 C5.66 1.34 6.32 0.68 7 0 C7.99 0 8.98 0 10 0 C10 1.32 10 2.64 10 4 C8.35 4.66 6.7 5.32 5 6 C4.67 9.63 4.34 13.26 4 17 C2.68 17 1.36 17 0 17 C0 11.39 0 5.78 0 0 Z " fill="#777778" transform="translate(294,718)"/>
<path d="M0 0 C0 0.66 0 1.32 0 2 C1.98 2 3.96 2 6 2 C6.33 3.98 6.66 5.96 7 8 C3.88578592 9.8454602 1.61678684 10.46369062 -2 10 C-3.875 8.875 -3.875 8.875 -5 7 C-4.8125 3.875 -4.8125 3.875 -4 1 C-2 0 -2 0 0 0 Z " fill="#7A7B7B" transform="translate(686,726)"/>
<path d="M0 0 C1.65 0 3.3 0 5 0 C5 5.61 5 11.22 5 17 C3.35 17 1.7 17 0 17 C0 11.39 0 5.78 0 0 Z " fill="#818181" transform="translate(713,718)"/>
<path d="M0 0 C2 1 2 1 3.0703125 3.65234375 C3.59238281 5.27849609 3.59238281 5.27849609 4.125 6.9375 C4.47820312 8.01902344 4.83140625 9.10054687 5.1953125 10.21484375 C6 13 6 13 6 15 C2.7 15 -0.6 15 -4 15 C-3.32584613 9.7415998 -1.75734451 4.97361654 0 0 Z " fill="#E5F4F4" transform="translate(429,650)"/>
<path d="M0 0 C0.66 0 1.32 0 2 0 C2.625 2.375 2.625 2.375 3 5 C1 7 1 7 -2.5625 7.5 C-4.2640625 7.7475 -4.2640625 7.7475 -6 8 C-6.33 8.66 -6.66 9.32 -7 10 C-4.03 10 -1.06 10 2 10 C2.66 11.32 3.32 12.64 4 14 C-0.29 13.67 -4.58 13.34 -9 13 C-10.125 7.375 -10.125 7.375 -9 4 C-6.36 4 -3.72 4 -1 4 C-0.67 2.68 -0.34 1.36 0 0 Z " fill="#626263" transform="translate(366,722)"/>
<path d="M0 0 C2.375 0.75 2.375 0.75 3.375 1.75 C3.5625 5.1875 3.5625 5.1875 3.375 8.75 C1.375 10.75 1.375 10.75 -1.125 11 C-3.625 10.75 -3.625 10.75 -5.625 8.75 C-5.96161952 5.5857765 -6.12443411 3.56486618 -4.4375 0.8125 C-2.625 -0.25 -2.625 -0.25 0 0 Z " fill="#F3F3F3" transform="translate(730.625,721.25)"/>
<path d="M0 0 C3.29714793 0.32971479 4.6226839 0.6226839 7 3 C7.25 6 7.25 6 7 9 C5 11 5 11 2.5 11.25 C0 11 0 11 -2 9 C-2.25 5.5 -2.25 5.5 -2 2 C-1.34 1.34 -0.68 0.68 0 0 Z " fill="#F1F1F1" transform="translate(655,721)"/>
<path d="M0 0 C2.375 0.75 2.375 0.75 3.375 1.75 C3.5625 5.1875 3.5625 5.1875 3.375 8.75 C1.375 10.75 1.375 10.75 -1.125 11 C-3.625 10.75 -3.625 10.75 -5.625 8.75 C-5.96161952 5.5857765 -6.12443411 3.56486618 -4.4375 0.8125 C-2.625 -0.25 -2.625 -0.25 0 0 Z " fill="#F2F2F3" transform="translate(474.625,721.25)"/>
<path d="M0 0 C2.4375 0.1875 2.4375 0.1875 3.4375 1.1875 C3.5354057 2.68488124 3.56724864 4.18692892 3.5625 5.6875 C3.56507813 6.5021875 3.56765625 7.316875 3.5703125 8.15625 C3.4375 10.1875 3.4375 10.1875 2.4375 11.1875 C0 11.375 0 11.375 -2.5625 11.1875 C-4.5625 9.1875 -4.5625 9.1875 -4.8125 5.6875 C-4.52167932 1.61601046 -4.20623277 0.30777313 0 0 Z " fill="#F4F4F4" transform="translate(618.5625,720.8125)"/>
<path d="M0 0 C0.66 0 1.32 0 2 0 C2 0.66 2 1.32 2 2 C5.465 1.505 5.465 1.505 9 1 C8.125 5.875 8.125 5.875 7 7 C5.33382885 7.04063832 3.66611905 7.042721 2 7 C2 7.66 2 8.32 2 9 C3.32 9.33 4.64 9.66 6 10 C-0.875 9.125 -0.875 9.125 -2 8 C-2.1875 5.0625 -2.1875 5.0625 -2 2 C-1.34 1.34 -0.68 0.68 0 0 Z " fill="#848585" transform="translate(632,726)"/>
<path d="M0 0 C0.33 0 0.66 0 1 0 C1 2.97 1 5.94 1 9 C6.61 9 12.22 9 18 9 C18.33 9.66 18.66 10.32 19 11 C19.66 11 20.32 11 21 11 C20.67 12.32 20.34 13.64 20 15 C21.98 15 23.96 15 26 15 C26 15.33 26 15.66 26 16 C15.44 16 4.88 16 -6 16 C-6 15.67 -6 15.34 -6 15 C1.59 15 9.18 15 17 15 C17 13.35 17 11.7 17 10 C11.39 10 5.78 10 0 10 C0 6.7 0 3.4 0 0 Z " fill="#9BD1D9" transform="translate(393,663)"/>
<path d="M0 0 C0.99 0 1.98 0 3 0 C3.33 1.65 3.66 3.3 4 5 C7.63 5.33 11.26 5.66 15 6 C15 6.99 15 7.98 15 9 C9.72 9 4.44 9 -1 9 C-0.67 6.03 -0.34 3.06 0 0 Z " fill="#626364" transform="translate(421,726)"/>
<path d="M0 0 C1.32 0 2.64 0 4 0 C4 5.61 4 11.22 4 17 C2.68 17 1.36 17 0 17 C0 11.39 0 5.78 0 0 Z " fill="#717070" transform="translate(457,718)"/>
<path d="M0 0 C17.26064245 2.79420274 17.26064245 2.79420274 24.1953125 5.37109375 C26.74726577 6.2604108 29.32678556 6.6572802 32 7 C32 7.33 32 7.66 32 8 C26.46118614 8.23352048 21.78064426 7.40584062 16.4375 6 C11.50727543 4.70968482 7.15061556 3.73962133 2 4 C1.67 4.66 1.34 5.32 1 6 C3.97 6.495 3.97 6.495 7 7 C7 7.66 7 8.32 7 9 C4.69 8.67 2.38 8.34 0 8 C0 5.36 0 2.72 0 0 Z " fill="#74674B" transform="translate(537,329)"/>
<path d="M0 0 C1.625 2 1.625 2 1.625 8 C-2.335 8 -6.295 8 -10.375 8 C-10.375 7.67 -10.375 7.34 -10.375 7 C-6.745 7 -3.115 7 0.625 7 C0.295 6.01 -0.035 5.02 -0.375 4 C-0.705 4.66 -1.035 5.32 -1.375 6 C-8.125 6.125 -8.125 6.125 -10.375 5 C-9.75 3.125 -9.75 3.125 -8.375 1 C-5.10354476 -0.63572762 -3.44250885 -1.44947741 0 0 Z " fill="#8F8F90" transform="translate(554.375,720)"/>
<path d="M0 0 C6.3 -0.48461538 6.3 -0.48461538 9.4375 1.6875 C11 4 11 4 11 9 C7.04 9 3.08 9 -1 9 C-0.67 8.34 -0.34 7.68 0 7 C2.31 7 4.62 7 7 7 C5.38780799 3.84727614 5.38780799 3.84727614 2.9375 3.5 C2.298125 3.335 1.65875 3.17 1 3 C0.67 2.01 0.34 1.02 0 0 Z " fill="#666666" transform="translate(490,718)"/>
<path d="M0 0 C0.99 0.66 1.98 1.32 3 2 C3.1875 4.625 3.1875 4.625 3 7 C1.35 7.66 -0.3 8.32 -2 9 C-1.67 8.01 -1.34 7.02 -1 6 C-0.34 6 0.32 6 1 6 C1 4.68 1 3.36 1 2 C0.25556641 2.47179687 0.25556641 2.47179687 -0.50390625 2.953125 C-3.90570691 5.09619486 -7.3134826 7.20621878 -10.8125 9.1875 C-12.91843019 10.38498972 -14.98428649 11.65619099 -17 13 C-18.32 12.67 -19.64 12.34 -21 12 C-14.07 8.04 -7.14 4.08 0 0 Z " fill="#69624D" transform="translate(470,338)"/>
<path d="M0 0 C0.33 0 0.66 0 1 0 C1.33 3.3 1.66 6.6 2 10 C3.32 10.33 4.64 10.66 6 11 C5.67 12.32 5.34 13.64 5 15 C2.625 15.125 2.625 15.125 0 15 C-2 13 -2 13 -2.1953125 10.3984375 C-2.17210937 9.40070312 -2.14890625 8.40296875 -2.125 7.375 C-2.10695313 6.37210938 -2.08890625 5.36921875 -2.0703125 4.3359375 C-2.04710937 3.56507813 -2.02390625 2.79421875 -2 2 C-1.34 2 -0.68 2 0 2 C0 1.34 0 0.68 0 0 Z " fill="#727271" transform="translate(704,721)"/>
<path d="M0 0 C0.99 0 1.98 0 3 0 C3.33 2.97 3.66 5.94 4 9 C4.33 9 4.66 9 5 9 C5.33 6.03 5.66 3.06 6 0 C6.33 0 6.66 0 7 0 C7 3.63 7 7.26 7 11 C8.32 11 9.64 11 11 11 C10.67 12.32 10.34 13.64 10 15 C5.52028796 15.3632199 5.52028796 15.3632199 3.34375 13.84375 C1.46984601 11.27257941 1.70157279 9.4554375 1.8125 6.3125 C1.83957031 5.31863281 1.86664063 4.32476563 1.89453125 3.30078125 C1.92933594 2.54152344 1.96414063 1.78226563 2 1 C1.34 0.67 0.68 0.34 0 0 Z " fill="#8B8B8B" transform="translate(280,721)"/>
<path d="M0 0 C1.670625 0.061875 1.670625 0.061875 3.375 0.125 C3.5 2.5 3.5 2.5 3.375 5.125 C1.375 7.125 1.375 7.125 -1.75 7.25 C-3.173125 7.188125 -3.173125 7.188125 -4.625 7.125 C-5.25 4.75 -5.25 4.75 -5.625 2.125 C-3.625 0.125 -3.625 0.125 0 0 Z " fill="#EDF6F7" transform="translate(541.625,666.875)"/>
<path d="M0 0 C0.78503906 0.01417969 1.57007813 0.02835938 2.37890625 0.04296875 C3.55259766 0.05263672 3.55259766 0.05263672 4.75 0.0625 C6.94140625 0.23046875 6.94140625 0.23046875 9.94140625 1.23046875 C9.61140625 2.55046875 9.28140625 3.87046875 8.94140625 5.23046875 C4.65140625 5.23046875 0.36140625 5.23046875 -4.05859375 5.23046875 C-4.05859375 1.75182649 -3.62691382 0.40604918 0 0 Z " fill="#707072" transform="translate(267.05859375,710.76953125)"/>
<path d="M0 0 C0 0.66 0 1.32 0 2 C1.65 2.33 3.3 2.66 5 3 C5.33 3.99 5.66 4.98 6 6 C2.7 6 -0.6 6 -4 6 C-4.33 7.65 -4.66 9.3 -5 11 C-5.33 11 -5.66 11 -6 11 C-6.36476427 4.67741935 -6.36476427 4.67741935 -4.6875 1.5625 C-3 0 -3 0 0 0 Z " fill="#858585" transform="translate(491,719)"/>
<path d="M0 0 C4 6 4 6 4 11 C1.69 11 -0.62 11 -3 11 C-2.53199289 6.94393835 -2.12046792 3.53411321 0 0 Z " fill="#E6E6E6" transform="translate(596,716)"/>
<path d="M0 0 C2 1.5 2 1.5 3 3 C2 5 2 5 -1 7 C-1.33 6.01 -1.66 5.02 -2 4 C-2.7425 4 -3.485 4 -4.25 4 C-6.5 4 -8.75 4 -11 4 C-10.67 3.01 -10.34 2.02 -10 1 C-6.82975235 -0.58512383 -3.45332972 -0.42372144 0 0 Z " fill="#757475" transform="translate(693,718)"/>
<path d="M0 0 C0.66 0 1.32 0 2 0 C3.50156874 3.00313748 3.09281204 5.79067522 3.0625 9.125 C3.05347656 10.40632812 3.04445313 11.68765625 3.03515625 13.0078125 C3.02355469 13.99523437 3.01195312 14.98265625 3 16 C2.01 16 1.02 16 0 16 C0 10.72 0 5.44 0 0 Z " fill="#6D6C6D" transform="translate(505,719)"/>
<path d="M0 0 C1.43791516 0.14168137 2.8753237 0.28851043 4.3125 0.4375 C5.11300781 0.51871094 5.91351563 0.59992187 6.73828125 0.68359375 C9 1 9 1 12 2 C12 2.66 12 3.32 12 4 C8.61242079 6.08466413 5.94726562 6.42905061 2 6 C0 3 0 3 0 0 Z " fill="#8A8B8C" transform="translate(340,730)"/>
<path d="M0 0 C1.32 0 2.64 0 4 0 C3.54803755 1.60597325 3.08817673 3.20972508 2.625 4.8125 C2.36976563 5.70582031 2.11453125 6.59914063 1.8515625 7.51953125 C1 10 1 10 -1 13 C-2.5029278 10.46875317 -3.2006987 8.79254012 -2.46484375 5.88671875 C-1.7028501 3.89135862 -0.89496636 1.93909378 0 0 Z " fill="#767676" transform="translate(385,718)"/>
<path d="M0 0 C1.65 0 3.3 0 5 0 C5.53229326 1.26607607 6.05044544 2.53810412 6.5625 3.8125 C6.85253906 4.52019531 7.14257812 5.22789062 7.44140625 5.95703125 C8 8 8 8 7 11 C6.34 11 5.68 11 5 11 C3.35 7.37 1.7 3.74 0 0 Z " fill="#717171" transform="translate(372,719)"/>
<path d="M0 0 C0.66 0 1.32 0 2 0 C2 4.29 2 8.58 2 13 C0.68 13 -0.64 13 -2 13 C-1.85966889 11.02043559 -1.7125877 9.04134859 -1.5625 7.0625 C-1.48128906 5.96035156 -1.40007813 4.85820313 -1.31640625 3.72265625 C-1 1 -1 1 0 0 Z " fill="#696969" transform="translate(755,722)"/>
<path d="M0 0 C2.89932357 2.39509338 3.50168276 4.31245243 4 8 C3.34 8 2.68 8 2 8 C2 7.01 2 6.02 2 5 C1.01 5.99 0.02 6.98 -1 8 C-0.649375 8.9075 -0.29875 9.815 0.0625 10.75 C1.00170571 14.00591313 0.95514676 14.92749994 0 18 C-0.67260351 16.23141309 -1.33788395 14.46003984 -2 12.6875 C-2.37125 11.70136719 -2.7425 10.71523438 -3.125 9.69921875 C-4 7 -4 7 -4 4 C-3.01 3.67 -2.02 3.34 -1 3 C-0.67 2.01 -0.34 1.02 0 0 Z " fill="#53514C" transform="translate(522,373)"/>
<path d="M0 0 C1.05567573 3.52180345 1.2665241 6.89518031 1.375 10.5625 C1.42398437 11.69816406 1.47296875 12.83382813 1.5234375 14.00390625 C1 17 1 17 -1.3984375 18.90234375 C-4 20 -4 20 -6 20 C-6 19.34 -6 18.68 -6 18 C-5.01 18 -4.02 18 -3 18 C-3.0309375 16.9171875 -3.0309375 16.9171875 -3.0625 15.8125 C-2.9421013 10.39455848 -1.3290211 5.22748297 0 0 Z " fill="#F9E397" transform="translate(470,321)"/>
<path d="M0 0 C0 0.66 0 1.32 0 2 C-3.66865241 4.44576827 -5.67200343 4.23607254 -10 4 C-10.66 3.67 -11.32 3.34 -12 3 C-12 2.34 -12 1.68 -12 1 C-10.56496445 0.63597631 -9.12683494 0.28413409 -7.6875 -0.0625 C-6.88699219 -0.25972656 -6.08648437 -0.45695313 -5.26171875 -0.66015625 C-3 -1 -3 -1 0 0 Z " fill="#79797A" transform="translate(501,732)"/>
<path d="M0 0 C0.66 0 1.32 0 2 0 C2.625 2.375 2.625 2.375 3 5 C0.50494038 7.49505962 -0.67328888 7.35948376 -4.125 7.625 C-5.03507812 7.69976563 -5.94515625 7.77453125 -6.8828125 7.8515625 C-7.93082031 7.92503906 -7.93082031 7.92503906 -9 8 C-9 6.68 -9 5.36 -9 4 C-6.36 4 -3.72 4 -1 4 C-0.67 2.68 -0.34 1.36 0 0 Z " fill="#717273" transform="translate(366,722)"/>
<path d="M0 0 C0.66 0.33 1.32 0.66 2 1 C-0.475 4.465 -0.475 4.465 -3 8 C-9.625 7.25 -9.625 7.25 -13 5 C-12.01 4.67 -11.02 4.34 -10 4 C-9.34 4.33 -8.68 4.66 -8 5 C-6.04114967 3.96405178 -6.04114967 3.96405178 -4 2.5 C-1.875 1.03125 -1.875 1.03125 0 0 Z " fill="#F7EBB6" transform="translate(477,305)"/>
<path d="M0 0 C0.66 -0.33 1.32 -0.66 2 -1 C1.34 0.98 0.68 2.96 0 5 C-6.75 4.125 -6.75 4.125 -9 3 C-9 2.01 -9 1.02 -9 0 C-5.95751583 -1.52124209 -3.29979168 -0.47139881 0 0 Z " fill="#7A7A7A" transform="translate(732,731)"/>
<path d="M0 0 C0.33 0 0.66 0 1 0 C1.33 1.65 1.66 3.3 2 5 C3.32 5.33 4.64 5.66 6 6 C5.67 7.32 5.34 8.64 5 10 C2.625 10.1875 2.625 10.1875 0 10 C-0.66 9.01 -1.32 8.02 -2 7 C-1.125 3.3125 -1.125 3.3125 0 0 Z " fill="#797A7A" transform="translate(329,726)"/>
<path d="M0 0 C3.3 0 6.6 0 10 0 C9.67 1.32 9.34 2.64 9 4 C6.36 4 3.72 4 1 4 C0.67 2.68 0.34 1.36 0 0 Z " fill="#EAEBEB" transform="translate(357,735)"/>
<path d="M0 0 C1.2065625 0.0309375 1.2065625 0.0309375 2.4375 0.0625 C2.81968767 1.71864657 3.15145102 3.38707024 3.4375 5.0625 C2.4375 6.0625 2.4375 6.0625 -0.125 6.125 C-1.3315625 6.0940625 -1.3315625 6.0940625 -2.5625 6.0625 C-2.94468767 4.40635343 -3.27645102 2.73792976 -3.5625 1.0625 C-2.5625 0.0625 -2.5625 0.0625 0 0 Z " fill="#F0F0F1" transform="translate(362.5625,720.9375)"/>
<path d="M0 0 C0.33 0 0.66 0 1 0 C1 8.58 1 17.16 1 26 C0.67 26 0.34 26 0 26 C-0.33 19.73 -0.66 13.46 -1 7 C-1.99 7.495 -1.99 7.495 -3 8 C-1.125 1.125 -1.125 1.125 0 0 Z " fill="#CBE7EA" transform="translate(372,652)"/>
<path d="M0 0 C0.66 0.33 1.32 0.66 2 1 C1.34 1.66 0.68 2.32 0 3 C-0.6425235 5.06874034 -0.6425235 5.06874034 -1 7 C0.98 6.34 2.96 5.68 5 5 C3.35 6.65 1.7 8.3 0 10 C-1.65 8.68 -3.3 7.36 -5 6 C-3.63016497 2.83884224 -3.0109362 2.0072908 0 0 Z " fill="#A07E3C" transform="translate(530,298)"/>
<path d="M0 0 C-0.33 1.32 -0.66 2.64 -1 4 C-3.64 4.66 -6.28 5.32 -9 6 C-9.33 4.35 -9.66 2.7 -10 1 C-6.61981469 -0.04005702 -3.5219721 -0.08004482 0 0 Z " fill="#7A7A7B" transform="translate(517,718)"/>
<path d="M0 0 C-0.33 1.65 -0.66 3.3 -1 5 C-2.65 5.33 -4.3 5.66 -6 6 C-6.33 4.68 -6.66 3.36 -7 2 C-4.35261084 0.5393715 -3.10551666 0 0 0 Z " fill="#E2E3E3" transform="translate(641,727)"/>
<path d="M0 0 C0.33 1.32 0.66 2.64 1 4 C-1.64 4.33 -4.28 4.66 -7 5 C-7.33 4.01 -7.66 3.02 -8 2 C-4.77208445 -0.1519437 -3.71599191 -0.20086443 0 0 Z " fill="#EAEAEB" transform="translate(691,721)"/>
<path d="M0 0 C0.33 1.32 0.66 2.64 1 4 C-1.64 4.33 -4.28 4.66 -7 5 C-7.33 4.01 -7.66 3.02 -8 2 C-4.77208445 -0.1519437 -3.71599191 -0.20086443 0 0 Z " fill="#EDEDEE" transform="translate(640,721)"/>
<path d="M0 0 C0.99 0 1.98 0 3 0 C3.66 2.64 4.32 5.28 5 8 C3.02 8 1.04 8 -1 8 C-0.67 5.36 -0.34 2.72 0 0 Z " fill="#6E6E70" transform="translate(421,726)"/>
<path d="M0 0 C1.65 0 3.3 0 5 0 C5.625 1.875 5.625 1.875 6 4 C5.34 4.66 4.68 5.32 4 6 C1.875 5.625 1.875 5.625 0 5 C0 3.35 0 1.7 0 0 Z " fill="#747475" transform="translate(401,722)"/>
<path d="M0 0 C-0.33 0.99 -0.66 1.98 -1 3 C-4.375 4.3125 -4.375 4.3125 -8 5 C-8.99 4.34 -9.98 3.68 -11 3 C-7.48550811 -0.37391222 -4.73940561 -0.27342725 0 0 Z " fill="#7A7A7B" transform="translate(552,718)"/>
<path d="M0 0 C0.66 0 1.32 0 2 0 C2 1.32 2 2.64 2 4 C1.34 4 0.68 4 0 4 C0 4.66 0 5.32 0 6 C-4.84659077 5.40895235 -8.60748167 4.02055843 -13 2 C-11.25 1.375 -11.25 1.375 -9 1 C-7.66666667 1.66666667 -6.33333333 2.33333333 -5 3 C-2.82676431 2.85318539 -2.82676431 2.85318539 -1 2 C-0.67 1.34 -0.34 0.68 0 0 Z " fill="#8E7444" transform="translate(471,314)"/>
<path d="M0 0 C0.99 0 1.98 0 3 0 C3 2.31 3 4.62 3 7 C2.34 7 1.68 7 1 7 C0.67 7.66 0.34 8.32 0 9 C-1 8 -1 8 -1.125 4.5 C-1 1 -1 1 0 0 Z " fill="#676767" transform="translate(466,723)"/>
<path d="M0 0 C1.67542976 0.28604898 3.34385343 0.61781233 5 1 C4.67 2.65 4.34 4.3 4 6 C2.68 5.67 1.36 5.34 0 5 C-0.5625 3.0625 -0.5625 3.0625 -1 1 C-0.67 0.67 -0.34 0.34 0 0 Z " fill="#7B7C7D" transform="translate(569,722)"/>
<path d="M0 0 C0.99 0.66 1.98 1.32 3 2 C3.1875 4.625 3.1875 4.625 3 7 C1.35 7.66 -0.3 8.32 -2 9 C-1.67 8.01 -1.34 7.02 -1 6 C-0.34 6 0.32 6 1 6 C1 4.68 1 3.36 1 2 C-1.475 3.485 -1.475 3.485 -4 5 C-4.66 4.34 -5.32 3.68 -6 3 C-4.02 2.01 -2.04 1.02 0 0 Z " fill="#9E7D3D" transform="translate(470,338)"/>
<path d="M0 0 C-0.99 0.33 -1.98 0.66 -3 1 C-3 1.66 -3 2.32 -3 3 C-5.31 3.66 -7.62 4.32 -10 5 C-10 3.68 -10 2.36 -10 1 C-6.78548731 -0.60725635 -3.56387464 -0.05748185 0 0 Z " fill="#7E7E7F" transform="translate(318,718)"/>
<path d="M0 0 C2.92879371 0.62759865 5.36095629 1.58622659 8 3 C7.01 3.33 6.02 3.66 5 4 C5.66 4.66 6.32 5.32 7 6 C4.6875 6.25 4.6875 6.25 2 6 C0.1875 4 0.1875 4 -1 2 C-0.67 1.34 -0.34 0.68 0 0 Z " fill="#808182" transform="translate(467,730)"/>
<path d="M0 0 C1.2065625 0.0309375 1.2065625 0.0309375 2.4375 0.0625 C2.1075 1.3825 1.7775 2.7025 1.4375 4.0625 C-0.2125 4.3925 -1.8625 4.7225 -3.5625 5.0625 C-3.5625 0.08689024 -3.5625 0.08689024 0 0 Z " fill="#ECECED" transform="translate(689.5625,727.9375)"/>
<path d="M0 0 C1.65 0 3.3 0 5 0 C4.67 1.32 4.34 2.64 4 4 C2.35 4.33 0.7 4.66 -1 5 C-0.67 3.35 -0.34 1.7 0 0 Z " fill="#E9EAEA" transform="translate(312,728)"/>
<path d="M0 0 C1.65 0.33 3.3 0.66 5 1 C5.33 1.99 5.66 2.98 6 4 C3.36 4 0.72 4 -2 4 C-1.34 2.68 -0.68 1.36 0 0 Z " fill="#EFEFEF" transform="translate(546,721)"/>
<path d="M0 0 C1.65 0.33 3.3 0.66 5 1 C5.33 1.99 5.66 2.98 6 4 C3.36 4 0.72 4 -2 4 C-1.34 2.68 -0.68 1.36 0 0 Z " fill="#EBECEC" transform="translate(343,721)"/>
<path d="M0 0 C2.125 0.375 2.125 0.375 4 1 C4 1.66 4 2.32 4 3 C4.99 3.33 5.98 3.66 7 4 C2.545 4.495 2.545 4.495 -2 5 C-2 2 -2 2 0 0 Z " fill="#868687" transform="translate(265,711)"/>
<path d="M0 0 C1.98 0 3.96 0 6 0 C5.67 1.32 5.34 2.64 5 4 C3.35 4 1.7 4 0 4 C0 2.68 0 1.36 0 0 Z " fill="#7B7B7C" transform="translate(704,732)"/>
<path d="M0 0 C1.32 0.66 2.64 1.32 4 2 C4 2.99 4 3.98 4 5 C5.98 5 7.96 5 10 5 C10 5.33 10 5.66 10 6 C3.6 6.36923077 3.6 6.36923077 0.5625 4.5 C0.046875 4.005 -0.46875 3.51 -1 3 C-0.67 2.01 -0.34 1.02 0 0 Z " fill="#848484" transform="translate(262,730)"/>
<path d="M0 0 C1.32 0 2.64 0 4 0 C3.8125 2.375 3.8125 2.375 3 5 C0.4375 6.3125 0.4375 6.3125 -2 7 C-1.34 4.69 -0.68 2.38 0 0 Z " fill="#848484" transform="translate(450,718)"/>
<path d="M0 0 C3.375 -0.1875 3.375 -0.1875 7 0 C7.66 0.99 8.32 1.98 9 3 C8.34 3 7.68 3 7 3 C6.67 3.66 6.34 4.32 6 5 C3.5625 4.1875 3.5625 4.1875 1 3 C0.67 2.01 0.34 1.02 0 0 Z " fill="#79797A" transform="translate(490,718)"/>
<path d="M0 0 C0.86625 0.3403125 0.86625 0.3403125 1.75 0.6875 C0.76 1.0175 -0.23 1.3475 -1.25 1.6875 C-0.92 3.0075 -0.59 4.3275 -0.25 5.6875 C-1.57 6.0175 -2.89 6.3475 -4.25 6.6875 C-4.91 5.3675 -5.57 4.0475 -6.25 2.6875 C-2.80384615 -0.38942308 -2.80384615 -0.38942308 0 0 Z " fill="#229EB2" transform="translate(537.25,653.3125)"/>
<path d="M0 0 C1.65 0 3.3 0 5 0 C5 1.98 5 3.96 5 6 C3.35 6 1.7 6 0 6 C0.66 4.35 1.32 2.7 2 1 C1.34 0.67 0.68 0.34 0 0 Z " fill="#24A1B4" transform="translate(632,653)"/>
<path d="M0 0 C1.65 0.33 3.3 0.66 5 1 C5.33 1.99 5.66 2.98 6 4 C3.69 4 1.38 4 -1 4 C-0.67 2.68 -0.34 1.36 0 0 Z " fill="#F1F1F1" transform="translate(491,721)"/>
<path d="M0 0 C1.32 0.33 2.64 0.66 4 1 C3.67 2.32 3.34 3.64 3 5 C1.35 4.67 -0.3 4.34 -2 4 C-1.34 2.68 -0.68 1.36 0 0 Z " fill="#7D7E7E" transform="translate(458,710)"/>
<path d="M0 0 C0.33 0 0.66 0 1 0 C1.33 1.65 1.66 3.3 2 5 C3.98 5.66 5.96 6.32 8 7 C8 7.33 8 7.66 8 8 C5.03 8 2.06 8 -1 8 C-0.67 5.36 -0.34 2.72 0 0 Z " fill="#727273" transform="translate(356,733)"/>
<path d="M0 0 C0.66 0 1.32 0 2 0 C2.12375 0.61875 2.2475 1.2375 2.375 1.875 C2.87197356 4.19120832 2.87197356 4.19120832 5 6 C3.125 6.625 3.125 6.625 1 7 C0.34 6.34 -0.32 5.68 -1 5 C-0.625 2.375 -0.625 2.375 0 0 Z " fill="#727173" transform="translate(264,715)"/>
<path d="M0 0 C1.98 0.495 1.98 0.495 4 1 C3.67 2.32 3.34 3.64 3 5 C1.68 5 0.36 5 -1 5 C-0.67 3.35 -0.34 1.7 0 0 Z " fill="#777677" transform="translate(714,710)"/>
<path d="M0 0 C0 3 0 3 -1.3125 4.60546875 C-1.869375 5.12753906 -2.42625 5.64960937 -3 6.1875 C-3.556875 6.71730469 -4.11375 7.24710938 -4.6875 7.79296875 C-5.120625 8.19128906 -5.55375 8.58960938 -6 9 C-6.66 8.67 -7.32 8.34 -8 8 C-7.04578192 6.85073734 -6.08647955 5.70569459 -5.125 4.5625 C-4.59132813 3.92441406 -4.05765625 3.28632812 -3.5078125 2.62890625 C-2 1 -2 1 0 0 Z " fill="#1D345C" transform="translate(381,532)"/>
<path d="M0 0 C0.99 0.33 1.98 0.66 3 1 C2.01 2.485 2.01 2.485 1 4 C1.350625 4.598125 1.70125 5.19625 2.0625 5.8125 C3 8 3 8 2 11 C-1.07692308 5.70769231 -1.07692308 5.70769231 -0.6875 2.125 C-0.460625 1.42375 -0.23375 0.7225 0 0 Z " fill="#F8E9A2" transform="translate(520,358)"/>
<path d="M0 0 C0 0.99 0 1.98 0 3 C-0.9590625 3.1546875 -0.9590625 3.1546875 -1.9375 3.3125 C-2.618125 3.539375 -3.29875 3.76625 -4 4 C-4.33 4.99 -4.66 5.98 -5 7 C-6.65 7.33 -8.3 7.66 -10 8 C-6.88983545 4.71211176 -3.98381075 2.16264012 0 0 Z " fill="#6D6653" transform="translate(542,290)"/>
<path d="M0 0 C0 0.66 0 1.32 0 2 C-2.95664519 3.4783226 -5.74229737 3.06032783 -9 3 C-8 1 -8 1 -5.625 -0.1875 C-3 -1 -3 -1 0 0 Z " fill="#6A696A" transform="translate(352,732)"/>
<path d="M0 0 C1.98 0 3.96 0 6 0 C6.33 0.99 6.66 1.98 7 3 C4.36 3 1.72 3 -1 3 C-0.67 2.01 -0.34 1.02 0 0 Z " fill="#DADADB" transform="translate(360,729)"/>
<path d="M0 0 C0.33 1.32 0.66 2.64 1 4 C1.66 4 2.32 4 3 4 C3.33 2.68 3.66 1.36 4 0 C4.33 0.99 4.66 1.98 5 3 C4.01 4.485 4.01 4.485 3 6 C0.375 6.1875 0.375 6.1875 -2 6 C-1.34 4.02 -0.68 2.04 0 0 Z " fill="#7A7A7B" transform="translate(444,726)"/>
<path d="M0 0 C1.4606285 2.64738916 2 3.89448334 2 7 C0.68 6.67 -0.64 6.34 -2 6 C-1.125 1.125 -1.125 1.125 0 0 Z " fill="#666667" transform="translate(309,728)"/>
<path d="M0 0 C-1.32 1.32 -2.64 2.64 -4 4 C-4.99 3.67 -5.98 3.34 -7 3 C-6.67 2.01 -6.34 1.02 -6 0 C-3.50907189 -1.24546405 -2.58919267 -0.7767578 0 0 Z " fill="#848384" transform="translate(689,719)"/>
<path d="M0 0 C0.99 0.33 1.98 0.66 3 1 C3 1.66 3 2.32 3 3 C0.29120665 4.35439668 -2.00933268 4.06501451 -5 4 C-3.36587557 2.29159719 -2.13093906 1.06546953 0 0 Z " fill="#6D6D6E" transform="translate(535,731)"/>
<path d="M0 0 C2.64 0 5.28 0 8 0 C7.67 0.99 7.34 1.98 7 3 C5.02 3 3.04 3 1 3 C0.67 2.01 0.34 1.02 0 0 Z " fill="#676768" transform="translate(265,732)"/>
<path d="M0 0 C1.32 0 2.64 0 4 0 C3.67 1.65 3.34 3.3 3 5 C1.68 5 0.36 5 -1 5 C-0.67 3.35 -0.34 1.7 0 0 Z " fill="#838384" transform="translate(385,718)"/>
<path d="M0 0 C1.32 1.32 2.64 2.64 4 4 C3.01 5.485 3.01 5.485 2 7 C1.01 7 0.02 7 -1 7 C-0.67 4.69 -0.34 2.38 0 0 Z " fill="#7B7B7C" transform="translate(273,728)"/>
<path d="M0 0 C2.475 0.495 2.475 0.495 5 1 C4.34 2.65 3.68 4.3 3 6 C0 2.25 0 2.25 0 0 Z " fill="#787879" transform="translate(437,718)"/>
<path d="M0 0 C0.99 0.33 1.98 0.66 3 1 C2.01 2.32 1.02 3.64 0 5 C-0.99 4.67 -1.98 4.34 -3 4 C-2.67 3.01 -2.34 2.02 -2 1 C-1.34 0.67 -0.68 0.34 0 0 Z " fill="#818282" transform="translate(634,718)"/>
<path d="M0 0 C6.52307692 -0.36923077 6.52307692 -0.36923077 8.9375 1.5 C9.288125 1.995 9.63875 2.49 10 3 C9.67 3.66 9.34 4.32 9 5 C8.01 4.67 7.02 4.34 6 4 C6 3.34 6 2.68 6 2 C3.03 1.505 3.03 1.505 0 1 C0 0.67 0 0.34 0 0 Z " fill="#7F8081" transform="translate(528,718)"/>
<path d="M0 0 C1.32 0 2.64 0 4 0 C3.67 1.65 3.34 3.3 3 5 C2.01 4.67 1.02 4.34 0 4 C0 2.68 0 1.36 0 0 Z " fill="#787878" transform="translate(367,735)"/>
</svg>
