<svg width="300" height="60" viewBox="0 0 300 60" fill="none" xmlns="http://www.w3.org/2000/svg">
  <!-- ESSET Logo Full Lab -->
  <!-- Mark -->
  <g transform="translate(10, 8) scale(0.45)">
    <path d="M15 25 L30 35 L30 75 L15 65 Z" fill="#004841" />
    <path d="M30 35 L80 35 L85 42 L35 42 L30 35 Z" fill="#005F56" />
    <path d="M30 50 L75 50 L80 57 L35 57 L30 50 Z" fill="#005F56" fill-opacity="0.9" />
    <path d="M30 65 L80 65 L85 72 L35 72 L30 65 Z" fill="#005F56" fill-opacity="0.8" />
    <g transform="translate(65, 8)">
       <path d="M0 27 C0 15 8 15 12 0 C16 15 24 15 24 27 L0 27 Z" fill="#F4A026" />
    </g>
  </g>
  
  <!-- Wordmark "ESSET Lab" -->
  <g transform="translate(65, 45) scale(0.024, -0.024)" fill="#2C2C2C">
    <!-- ESSET -->
    <path d="M188 1493H1227V1202H573V924H1188V633H573V291H1249V0H188Z" />
    <path d="M1227 1446V1130Q1104 1185 987.0 1213.0Q870 1241 766 1241Q628 1241 562.0 1203.0Q496 1165 496 1085Q496 1025 540.5 991.5Q585 958 702 934L866 901Q1115 851 1220.0 749.0Q1325 647 1325 459Q1325 212 1178.5 91.5Q1032 -29 731 -29Q589 -29 446.0 -2.0Q303 25 160 78V403Q303 327 436.5 288.5Q570 250 694 250Q820 250 887.0 292.0Q954 334 954 412Q954 482 908.5 520.0Q863 558 727 588L578 621Q354 669 250.5 774.0Q147 879 147 1057Q147 1280 291.0 1400.0Q435 1520 705 1520Q828 1520 958.0 1501.5Q1088 1483 1227 1446Z" transform="translate(1330, 0)" />
    <path d="M1227 1446V1130Q1104 1185 987.0 1213.0Q870 1241 766 1241Q628 1241 562.0 1203.0Q496 1165 496 1085Q496 1025 540.5 991.5Q585 958 702 934L866 901Q1115 851 1220.0 749.0Q1325 647 1325 459Q1325 212 1178.5 91.5Q1032 -29 731 -29Q589 -29 446.0 -2.0Q303 25 160 78V403Q303 327 436.5 288.5Q570 250 694 250Q820 250 887.0 292.0Q954 334 954 412Q954 482 908.5 520.0Q863 558 727 588L578 621Q354 669 250.5 774.0Q147 879 147 1057Q147 1280 291.0 1400.0Q435 1520 705 1520Q828 1520 958.0 1501.5Q1088 1483 1227 1446Z" transform="translate(2660, 0)" />
    <path d="M188 1493H1227V1202H573V924H1188V633H573V291H1249V0H188Z" transform="translate(4060, 0)" />
    <path d="M10 1493H1386V1202H891V0H506V1202H10Z" transform="translate(5400, 0)" />
    
    <!-- Lab (Spaced) -->
    <g transform="translate(7200, 0)">
      <path d="M188 1493H573V291H1249V0H188Z" />
      <path d="M674 504Q562 504 505.5 466.0Q449 428 449 354Q449 286 494.5 247.5Q540 209 621 209Q722 209 791.0 281.5Q860 354 860 463V504ZM1221 639V0H860V166Q788 64 698.0 17.5Q608 -29 479 -29Q305 -29 196.5 72.5Q88 174 88 336Q88 533 223.5 625.0Q359 717 649 717H860V745Q860 830 793.0 869.5Q726 909 584 909Q469 909 370.0 886.0Q271 863 186 817V1090Q301 1118 417.0 1132.5Q533 1147 649 1147Q952 1147 1086.5 1027.5Q1221 908 1221 639Z" transform="translate(1330, 0)" />
      <path d="M768 231Q883 231 943.5 315.0Q1004 399 1004 559Q1004 719 943.5 803.0Q883 887 768 887Q653 887 591.5 802.5Q530 718 530 559Q530 400 591.5 315.5Q653 231 768 231ZM530 956Q604 1054 694.0 1100.5Q784 1147 901 1147Q1108 1147 1241.0 982.5Q1374 818 1374 559Q1374 300 1241.0 135.5Q1108 -29 901 -29Q784 -29 694.0 17.5Q604 64 530 162V0H172V1556H530Z" transform="translate(2660, 0)" />
    </g>
  </g>
</svg>
