<svg width="600" height="200" viewBox="0 0 600 200" fill="none" xmlns="http://www.w3.org/2000/svg">
  <!-- Icon (left side) - mono version -->
  <g transform="translate(0, 0)">
    <circle cx="100" cy="100" r="90" stroke="#005F56" stroke-width="4" fill="none" opacity="0.3"/>
    <path d="M 100 30 Q 140 50 145 90 Q 148 120 130 145 Q 110 165 85 155" 
          stroke="#005F56" stroke-width="12" fill="none" stroke-linecap="round"/>
    <path d="M 55 60 Q 45 85 50 110 Q 58 140 85 155 Q 110 165 130 145" 
          stroke="#005F56" stroke-width="12" fill="none" stroke-linecap="round"/>
    <path d="M 130 50 Q 155 70 160 100 Q 162 130 145 155 Q 125 170 100 165" 
          stroke="#005F56" stroke-width="12" fill="none" stroke-linecap="round"/>
    <circle cx="100" cy="165" r="6" fill="#005F56"/>
    <circle cx="130" cy="145" r="6" fill="#005F56"/>
    <circle cx="85" cy="155" r="6" fill="#005F56"/>
  </g>
  
  <!-- Wordmark (right side) - all teal -->
  <g transform="translate(240, 100)">
    <text x="0" y="0" font-family="Arial, Helvetica, sans-serif" font-size="72" font-weight="700" fill="#005F56" letter-spacing="-0.02em">ESSET</text>
    <text x="0" y="50" font-family="Arial, Helvetica, sans-serif" font-size="60" font-weight="700" fill="#005F56" letter-spacing="-0.01em">MEAL</text>
  </g>
</svg>
